<?xml version="1.0" encoding="UTF-8"?>
<svg id="Layer_1" xmlns="http://www.w3.org/2000/svg" version="1.1" viewBox="0 0 240 320">
  <!-- Generator: Adobe Illustrator 29.2.1, SVG Export Plug-In . SVG Version: 2.1.0 Build 116)  -->
  <defs>
    <style>
      .st0 {
        fill: #262626;
      }

      .st1 {
        fill: #3c3c3c;
      }

      .st2 {
        fill: #444;
      }

      .st3 {
        fill: #040404;
      }

      .st4 {
        fill: #828282;
      }

      .st5 {
        fill: #6c6c6c;
      }

      .st6 {
        fill: #1b1b1b;
      }

      .st7 {
        fill: #7c7c7c;
      }

      .st8 {
        fill: #393939;
      }

      .st9 {
        fill: #545454;
      }

      .st10 {
        fill: #292929;
      }

      .st11 {
        fill: #d2d2d2;
      }

      .st12 {
        fill: #707070;
      }

      .st13 {
        fill: #454545;
      }

      .st14 {
        fill: #030303;
      }

      .st15 {
        fill: #767676;
      }

      .st16 {
        fill: #9a9a9a;
      }

      .st17 {
        fill: #8e8e8e;
      }

      .st18 {
        fill: #d9d9d9;
      }

      .st19 {
        fill: #1c1c1c;
      }

      .st20 {
        fill: #b5b5b5;
      }

      .st21 {
        fill: #ebebeb;
      }

      .st22 {
        fill: #5b5b5b;
      }

      .st23 {
        fill: #8a8a8a;
      }

      .st24 {
        fill: #c1c1c1;
      }

      .st25 {
        fill: #8d8d8d;
      }

      .st26 {
        fill: #a5a5a5;
      }

      .st27 {
        fill: #606060;
      }

      .st28 {
        fill: #4f4f4f;
      }

      .st29 {
        fill: #5c5c5c;
      }

      .st30 {
        fill: #e5e5e5;
      }

      .st31 {
        fill: #757575;
      }

      .st32 {
        fill: #d8d8d8;
      }

      .st33 {
        fill: #424242;
      }

      .st34 {
        fill: #b4b4b4;
      }

      .st35 {
        fill: #696969;
      }

      .st36 {
        fill: #b1b1b1;
      }

      .st37 {
        fill: #373737;
      }

      .st38 {
        fill: #5d5d5d;
      }

      .st39 {
        fill: #c6c6c6;
      }

      .st40 {
        fill: #060606;
      }

      .st41 {
        fill: #656565;
      }

      .st42 {
        fill: #636363;
      }

      .st43 {
        fill: #797979;
      }

      .st44 {
        fill: #a6a6a6;
      }

      .st45 {
        fill: #c7c7c7;
      }

      .st46 {
        fill: #0d0d0d;
      }

      .st47 {
        fill: #050505;
      }

      .st48 {
        fill: #a0a0a0;
      }

      .st49 {
        fill: #464646;
      }

      .st50 {
        fill: #b3b3b3;
      }

      .st51 {
        fill: #575757;
      }

      .st52 {
        fill: #898989;
      }

      .st53 {
        fill: #1d1d1d;
      }

      .st54 {
        fill: #020202;
      }

      .st55 {
        fill: #3d3d3d;
      }

      .st56 {
        fill: #b7b7b7;
      }

      .st57 {
        fill: #0b0b0b;
      }

      .st58 {
        fill: #cdcdcd;
      }

      .st59 {
        fill: #868686;
      }

      .st60 {
        fill: #a3a3a3;
      }

      .st61 {
        fill: #242424;
      }

      .st62 {
        fill: #878787;
      }

      .st63 {
        fill: #565656;
      }

      .st64 {
        fill: #646464;
      }

      .st65 {
        fill: #515151;
      }

      .st66 {
        fill: silver;
      }

      .st67 {
        fill: #7e7e7e;
      }

      .st68 {
        fill: #acacac;
      }

      .st69 {
        fill: #e1e1e1;
      }

      .st70 {
        fill: #fefefe;
      }

      .st71 {
        fill: #d5d5d5;
      }

      .st72 {
        fill: #747474;
      }

      .st73 {
        fill: #383838;
      }

      .st74 {
        fill: #5e5e5e;
      }

      .st75 {
        fill: #5a5a5a;
      }

      .st76 {
        fill: #f8f8f8;
      }

      .st77 {
        fill: #818181;
      }

      .st78 {
        fill: #626262;
      }

      .st79 {
        fill: #838383;
      }

      .st80 {
        fill: #afafaf;
      }

      .st81 {
        fill: #7f7f7f;
      }

      .st82 {
        fill: #202020;
      }

      .st83 {
        fill: #585858;
      }

      .st84 {
        fill: #949494;
      }

      .st85 {
        fill: #989898;
      }

      .st86 {
        fill: #b9b9b9;
      }

      .st87 {
        fill: #676767;
      }

      .st88 {
        fill: #c2c2c2;
      }

      .st89 {
        fill: #cbcbcb;
      }

      .st90 {
        fill: #6e6e6e;
      }

      .st91 {
        fill: #6a6a6a;
      }

      .st92 {
        fill: #434343;
      }

      .st93 {
        fill: #737373;
      }

      .st94 {
        fill: #a8a8a8;
      }

      .st95 {
        fill: #ededed;
      }

      .st96 {
        fill: #404040;
      }

      .st97 {
        fill: #333;
      }

      .st98 {
        fill: #787878;
      }

      .st99 {
        fill: #535353;
      }

      .st100 {
        fill: #d1d1d1;
      }

      .st101 {
        fill: #9f9f9f;
      }

      .st102 {
        fill: #555;
      }

      .st103 {
        fill: #ececec;
      }

      .st104 {
        fill: #b2b2b2;
      }

      .st105 {
        fill: #4c4c4c;
      }

      .st106 {
        fill: #e8e8e8;
      }

      .st107 {
        fill: #4d4d4d;
      }
    </style>
  </defs>
  <path class="st70" d="M240,0v320H0V0h240ZM102.5,57c-4.64,5.99-4.32,13.8-7.5,19-1.38,2.25-5.77,5.11-8.38,5.41-2.35.27-4.63-1.86-7.12-1.41-1.55-.9-1.95-1.73-4-2l-.33-.41c-2.52.17-4.79-.52-7.17-1.09-1.79-.44-3.68-1.03-5.5-1.5-5-1.28-10.41-2.1-15.7-1.96-4.85.13-5.77,3.92-8.73,6.82l1.43,5.64c.03,2.12.42,5.12,1,7,.17,4.2,2.59,9.77,4.5,13.5,1.15,2.25,1.31,2.62,3,4.75,1.12,1.42,1.38,3.42,4,3.75,2.25,2.59,11.02,12.13,13.5,13,.45.16.64.79,1.5,0,.09.12,2.16,1.29,2.5,1.5,1.15.69,2.43,1.04,3.47,1.78,1.11.8,1.67,2.1,2.53,2.72,1.21,6.52-.55,13.25-.99,19.76-.41,6.01-.45,12.18-.89,18.14,1.22.88,1.93,1.17,3.39.61l-2.04,2.23c-.48,2.99.82,6.15,1.03,9.03.29,3.98-.65,7.94,1.01,11.74-.65.23-.73,1.23-1,1.5-4.21,4.13-2.35,5.08-4.28,9.47-.7,1.58-3.17,3.72-3.97,5.53-1.27,2.86-2.33,8.69-3.24,12.01-1.31,4.78-3.39,8.15-4.5,12-.86,2.97-.1,5.82-2,8.5.33.28,1.84-.74,2-1,.83-.1,1.49.04,1.99.75l-1.49,1.75c-2.77.61-3.57,2.2-4.39,2.48-.65.22-1.38,0-2.4.47-1.25.58-4.29,3-4.21,4.55h-2.49c-2.17.48.03,4.61,1.31,5.44.84.55,1.71.33,2.19.55,1.08.5,1.29.6,2.5,1,3.31,1.1,3.46,1.54,7.5,1.5,6.28-.07,6.48-1.28,11-4.5,3.91-2.79,9.41-3.59,12.62-6.49.3-.27,3.76-4.72,3.88-5.01,1.55.21,2.55,1.84,3.5,3,.36.44.79.74,1,1,.69.85.91,2.02,1.5,2.75,1.69,2.09,4.1,3.75,5.5,6.25-.11.31-.08,2.22.08,2.43.28.24.75-.01.92.07.55.25.82,1.25,1.08-.4l.67-.1c.24.08,2.37,3.21,2.47,3.48.19.55-.23,1.38-.12,2.15.2,1.41,2.29,1.58,1.38,3.84-2.88-.61-5.6,4.81-2.48,5.77l-.56,1.2c-.79.15-1.68-.13-2.43.3s-5.08,6.63-5.5,7.75c-.66,1.74-.69,3.52-2.49,4.75l3.49,1.75c2.65,1.65,1.81-2.14,2.11-3.65.19-.92.71-1.35.89-1.85.24-.71.46-1.91.5-2,.28-.58,1.26-1.92,1.7-2.56.2-.28.56-1.8,1.29-.94.55.64-1.34,2.25-1.42,2.84-.08.62.81,1,.71,1.68-.22,1.48-2.67,4.15-1.78,6.47-.73,1.82-1.36,2.13.5,4-.1,1.79,1,3.73,2.89,3.92,1.99.2,1.72-1.88,2.61-2.92.78-.91,3.31-2,4.5-2.5.24-.1.87.2,1.36-.12.43-.27,1.37-2.68,1.64-3.38.43-.1,1.23-.2,1.5-.5,1.4,1.73,3.06.9,2.96,3.77.69.43,1.62.08,2.04.23.09.03.95.47,1,.5.31.22,2.05,2.84,2.49,2.5,0-2.26,3.44-5.28,3.9-6.85,1.28-4.4-.89-11.58-.93-15.95,0-.99.53-1.6.53-1.69,1.99-3.91,2.59-3.21,6-2,1.94.68,5.96,1.84,8,1.5,1.66-.28,3.16-3.19,5.5-2.5.25.39,1.58,1.39,2,1.5-.08.97.12,2.06,0,3-.28,2.26-.88,4.53-1,7-.03.53-.56.55-.14,1.84,1.12,3.42,4.88,4.19,4.64,7.66.41.46,1.98-1.01,2.23-1.52.42-.88.89-3.35.77-3.98-.05-.27-.51-.63-.49-.75.06-.35.74-.54.99-.75l1.47.02c.09.99.18,2.03.53,2.98-1.79,3.3,1.69,6.3,4.77,6.49.73.04,1.4-.43,2.03-.44,1.57-.03,3.28,1.54,3.2-1.55.04.05.73-.04,1.22.53.28.32.15,1.16.38,1.38.33.33,1.05,0,1.4.09,1.72.46,4.15.83,5.51-.74.86-1,1.2-6.12,1.75-6.25,1.98-.47,1.2,2.6,3.24,1h.5c.83,2.93,4.68.74,5.81-1.23-.54-2.73-1.07-4.9-2.33-7.38-.21-.42-.9-.69-.99-.88-1.66-3.53-3.37-6.99-5-10.5-.16-3.65-.01-6.99,1-10.5,1.49-5.17,5.06-7.75,7.91-11.84,10.31-14.74,17.24-28.79,13.47-47.3-.53-2.6-4.48-6.33-5.16-10.34-.33-1.91.25-2.74.16-4.15-.14-2.12-1.42-4.28-1.88-6.37-.52-2.36-.56-5.1-1.34-7.41-1.15-3.38-4.24-5.71-3.63-9.82.11-.71.84-1.19.85-1.92.02-.96-.73-1.74-.88-2.35-.26-1.12-1.47-7.25-2-7.5-.12-.06-.33.04-.5,0,1.17-1.73-.1-3.87-1-5.5-.65-1.17-1.4-1.25-2.14-3.61-1.95-6.18-4.18-15.12.64-20.39,10.18-3.87,8.85-7.64,13.31-15.94,5.08-9.44,12.48-18.54,13.2-29.79.32-4.95-1.25-15.51-5.67-18.37-.81-.53-1.61-.57-2.35-.9-1.44-.63-1.18-.65-3-1-3.49-.67-4.16-.4-7.5.5-4.98,1.34-10.23,4.63-14.5,7.5-2.22,1.49-3.46,2.28-5.5,4-5.12,1.93-8.81,7.38-13.5,10-1.11.62-2.33,1.02-3.5,1.5-.46-4.1-1.61-6.38-3-10-1.68-4.37-2.45-8.13-7.06-10.69-2.83-1.58-6.88-2.94-9.61-4.41-.98-.52-.65-1.7-2.62-1.88s-2.36.78-3.93,1c-2.62.37-6.1-.19-8.96.04-6.58.53-13.67,2.08-17.81,7.44ZM102,262c-3.77-.25-1.92,1.43-2.04,3.2s-1.35,4.19.3,5.8c1.3-2.31-.04-5.18.76-7.65.19-.6,1.43,0,.99-1.35Z"/>
  <path class="st31" d="M189.5,155c.14.61.9,1.39.88,2.35-.02.73-.75,1.22-.85,1.92-.61,4.11,2.48,6.44,3.63,9.82.79,2.3.82,5.05,1.34,7.41-1.67.52-.36,1.81-.58,2.65-.67,2.59-1.33.31-.42,4.85-.9,1.01.01,2.54-.1,3.64-.17,1.63-1.96,3.05.1,5.36,0,.16-.02.34,0,.5-.18.62.75,2.07-.74.99-1.12-.81-2.25-1.93-3.76-1.99l.99,4-6.24-4.01c-2.03-.37.87,2.22.24,3.01-.9-.99-2.9-1.9-4.18-1.47-.47.16-.13,1.32-1.06.97-1.08-.42-1.69-2.02-4.26-1.26l1.5,3.26-1.99-.5-.75,1.99-2.24-1.49-.76,1.49-4.76-2.99,1.5,1.99-1.5.25,2,2.25-5-2.49,2,2.25-1.49.49,3.49,4.01-1.49.76,2.5,4.49c4.38-2.36,6.65,4.55,10.26,5.49.55.14,2.15.32,1.73-.73-.46-1.17-4.78-2.12-5.49-4.01,2.88-3.29,7.12,2.17,8.99,4.5l-2,.5c.39.98,3.23,1.64,3.39,1.86.86,1.13-.77.82,2.05,2.7,2.6,1.73,0,2.37-1.95,1.7l2,2.49-4.5-.99c.74,1.26,2.52,1.71,3.25,3,.34.6.73,1.7-.49,1.49-1.33-1.25-3.4-1.82-3.26-4-3.56,1.7-5.58-2.33-8.49-3.49-.22.98.51,1.18,1.04,1.7,1.27,1.23,3.26,2.68,4.39,4.09.89,1.12.77,3.18,3.06,3.96.67,1.28-2.34.03-1.48,1.98.37.84,3.89,2.37,2.98,4.76l-1.99-.75,2.03,2.95c-1.43.85-2.5,2.03-2.54,3.8-2.06-.98-3.42.41-3.5,2.5l-1.49-.51-.75,2.49-1.5-1.98c-1.27,2.88-3.97,2.08-5.93,3.56-1.73,1.3-1.73,4-4.81,1.43l-2.55,5.48-4.21-1.47-2.75,6.99-.92-.25c.68-1.55-1.34-1.46-2.25-.79-.68.5-.79,2.65-.83,3.54-.98,1.08-3.26,4.83-2.5,6-2.34-.69-3.84,2.22-5.5,2.5v-.5s-.12-.66.14-.84c.55-.38,1.49-.12,1.8-.96.51-1.38-.7-5.12-.4-7.4.33-2.42,2.12-4.58,2.73-6.76s.09-4.08.33-5.66c.31-2.08,2.8-4.16,1.89-6.87,1.96-.61,1.29,1.55,3,1.5.41-2.17-1.17-3.77-1.45-5.79-.4-2.84.39-5.9-.26-8.74-3.55-.51-2.07-.71-3.25-2.23-.69-.89-2.56-1.07-2.54-2.73l-1,.25.5,3.24c-2.28-2.14-5.8-3.83-8.72-2-2-3.51-4.96-6.67-3.77-11-1.74.3-3,.28-4.6-.55-.44-.22-.5-.8-1.03-1.09-2.02-1.08-5.4-1.51-4.87-4.36-1.52.09-1.99,2.05-3.99,1.5l.5-2.99c-2.61,1.06-3.24-1.29-3.81-1.46s-1.41.45-2.22.25c-1.06-.27-3.81-3.01-5.01-3.52-.71-.3-3.69-.64-4.46-.27.29-2-.42-1.24-1-1.51-1.73-.8-2.76-1.31-2.5-3.5l-2.99,1.5,1-2.26c-2.54-.43,1.63-1.75-.25-3.24-.38.79-2.44,2.81-3.07,2.92-.74.13-1.39-.79-1.93-.76s-.85,1.15-1.75.83l.44-.92-1.43-.82,2.49-4.24-1.26-.49-.24-1.02c2.09-.04.61-1.66,1.72-2.56.33-.27,3.52-.6,4.28-1.95.41.83-1.21,1.66-.99,1.99.07.1,1.54.43,1.77,1.51.89.23,2.54-2.71,3.72-.75l-3.99,5.01c2.2.82,2.95-2.25,3.83-3.19,2.67-2.87,5.13-5.21,7.67-8.06.16-.18.36-.32.5-.5,0,1.3,1.53,2.12,1.53,2.26-.04.72-1.53,2.85-1.02,4.24h1.5s-.28-1.5-.28-1.5l1.27-.49-.25,1.49,2.25-2.5c.2.88.96,1.66.98,2.25.04,1.03-1.17,1.67-.98,2.75l1.99-1.49-1,2.5,1.48.24-.99,2.25,1.99-1,1,2c.13-.97-.14-3.35,1.5-3l-.31,2.16.81,4.83,1.51-3.99c-2.81-.36-.78-5.04-1.01-7.21l-.99-.52c1.26-1.19.29-2.76.59-3.88.26-1,1.46-1.55,1.45-3.17,0-.78-1.87-.82-.55-3.22l-1.49.5-1-2c1.2.36,2.71.37,3.96.57l.32,1.46,5.42-.57.56,1.03c.84-1.02,3-2.23,4.25-2.5.05-.01.62.81.94.46.26-.28-.3-1.17.55-.96v1.5s2.5-.5,2.5-.5c.74,2.84-1.54,4.93-.49,7.5,4.67-1.02.79-5.64,4.97-6.02l-.98-4.98c-1.57-.33-.68,1.24-2.23,1.51-.77.13-1.68-.07-2.48,0-1.51-2.36,2.38-1.95,2.6-2.09.36-.23,1.8-2.72,1.62-3.42l1.99.5c.26-1.1-1.8-1.76-.49-2.74l2.99-.75c-2.27,6.91,8.29.25,10,4.75l-1.48,1.04c-.15.74.23,1.28.55,1.88.19.36,5.03,5.82,5.4,6.1.56.43.92.91,1.77.72,2.41-2.89-3.01-5.06-4.74-6.76l1.99-.49c-6.18-11.01-3.89-11.02,5.24-4.72,1.39.96,2.23-.22,1.77,2.97l2.74-1.52c1.41.24,2.41,4.08,3.15.6-1.08-.14-.98-.53-.89-1.58l4,.49-1-1.99c1.12-.3,2.33.47,3.28.44.34-.01,3.48-.35,3.94-.42,1.12-.17,1.47-1.41,2.53-1.52,2.77-.3,6.43,2.97,9.25,3-1.36-2.64-4.52-2.89-7-4-.18-2.25,2.65-.85,3.71-.99.83-.11,1.41-.98,2.29-1.01.59-.83-3.13-2.59,0-3.74l-2.03-1.53,1.03-2.22c.41.38,1.05.64,1.5,1ZM140.51,208.5l-2-4,.49,9.5c-1.81-.48-.56-3.9-1.06-4.43l-1.92-.57c-.59,2.27-1.58,7.08-4.5,6.01l.97,4.27,8.02,1.23c.74-5.2,3.75-.77,5.23-.98.25-.04.17-.83.64-.99,1-.35,5.35-1.82,6.03-1.95,1.42-.26,2.55,2.33,4.36-.57,2.25,1.37,1.34,3.48,1.78,5.21.96,3.72,2.18,7.75,5.23,10.28,1.58.65.31-3.13.11-3.61-.77-1.85-6.07-6.53-2.38-7.38.54,1.51,1.33,3.17,2.3,4.46,1.11,1.47,3.19,2.59,3.92,3.58,1.37,1.85,2.01,6.55,5.29,6.46.55-.51-4.26-6.3-4.71-7.04-1.09-1.81-2.89-5.33-3.72-7.28-1.72-4.02-1.67-10.4-7.07-10.68l-.75,2.99c-.8-1.04-.63-1.83-2.25-1.49l-.05,1.43c-3.11.03-8.78,2.3-9.02-2.39-2.25.39-1-2.51-3.19-3.54-.1,1.4-1,.48-1.17.61-.26.2.27,1.1-.57.89Z"/>
  <path class="st8" d="M203,53c.74.32,1.53.37,2.35.9,4.41,2.86,5.99,13.43,5.67,18.37-.73,11.25-8.13,20.36-13.2,29.79-4.46,8.3-3.14,12.07-13.31,15.94-.88.34-2.42.08-3.27.98l.27,3.52-1.97.04c-.64,1.2.16,3.69-.14,4.6-.48,1.46-2.32,2.63-1.4,5.36-2.9-.28-.58-2.4-3-3v-.5c1.47-2.42-1.72-4.15-2.68-6-.76-1.48.33-1.16-1.82-3.5-.9-.98-1.93-2.21-3-3-2.03-3.21-4.7-5.86-8.13-7.62-1.4-.72-4.77-.52-4.9-3.01l-1.98.13c.25-.15.67-1.37,1.3-1.48l2.19.97c.32-1.53-1.54-2.34-2-3-1.98-2.85-1.52-6.12-4.5-8.5,1.87.71,3.13,1.89,5,2,.27-.25-2.14-4.27-2.48-4.76-.37-.52-1.23-.64-1.52-.99-.77-.93-.02-2.47-1.49-2.25l1.99-1.49c-1.33,0-2.88,1.24-3.5-.5h2c-1.79-5.43-4.93-2.66-8.5-1.5l-.48-2.25c-2.14-1.22-5.18.41-7.2-.74-.58-.33-.07-1.22-.65-1.54-.37-.2-2.89-.74-3.55-.86-8.67-1.52-20.32-2.67-29.12-3.12-1.61-.08-3.14,0-4.71.38l-.29-.38c3.18-5.2,2.86-13.01,7.5-19,.67.21,1.27,1.33,1.82,1.42.11.02,2.09-.37,2.18-.42-.18,1.85-.08,1.23,1.16,1.57,1.41.39,2.89.75,4.34.94-.66,1.99-1.35,5.08-4,4.49l1.54-3.68-1.3-.81c-.23-.06-1.17,2.45-1.25,3l-2,1,1-2.99c-1.61-1.16-3.84,3.93-2.52,4.77l2.02.23-.99,3.48c.79.33,1.68.33,2.49.52,2.35.56,6.14,1.74,8.03-.22,1.37-1.42,3.7-9.02,3.97-11.28.08.04.74-.97,1.54.21l.47,2.3c1.4.31,2.15-1.13,3.35-1.4.56-.13,4.41-.52,4.85-.47.86.1,1.52,1.15,2.57,1.35s2.36-.16,3.46.04c1.67.31,3.18,1.56,5.27.98v9.5l2.44-1.31c.24-2.82-.39-6.19,1.32-8.69,1.07-.22,6.14,4.73,8.24,4,1.39,3.62,2.54,5.9,3,10,.12,1.1-.06,2.36,0,3.5.11,2.18-.81,4.26,2.26,4.05,1.92-.13,1.61-2.13,3.73-2.06l-1.49-.74,2.77-1.73-.27-1.52c2.04-1.29,6.21.9,7.26.82.55-.04.85-1.13,1.74-.82-.69.54-3.28,3.89-1.25,3.98.64.03,5.62-5.15,8.03-5.5l1.49,1.51c1.86-.84,2.54-1.63,4.74-1l-.51.99c1.81-.45,3.39-.86,5.21-.05,1.32,3.4,3.25,5.4.3,8.79l1.4,2.94c0,.8-3.62,4.61-4.9,4.33.28.97,1.83.79,2.54,1.71,1.85,2.43-2.28,3.02-2.8,3.79s0,2.11-1.74,2.99c2.02-.02,2.45,2.4,4.79,2.5.56.03,3.14-.84,3.55-1.15.47-.36,4.98-4.29,5.17-4.58,1.69-2.64,3.31-7.26,4.72-10.28,1.24-2.66,1.13-1.94,1.88-5.12.16-.67,1.15-.96.89-1.86-.58-.52-3.61,1.34-3.99,0,4.1-.4,5.34-3.27,7.51-6.28.24-1.01-1.1-2.15-.95-2.91.13-.68,1.6-1.2,1.4-2.01-.13-.53-1.24-.97-1.36-1.62-.14-.77.66-1.7.18-3.22-.28-.88-2.38-4.26-3.29-4.72,1.74-1.14.34-3.1-.8-4.18l-1.7.43-.74-2.53,1.74-.97ZM147.02,78.97l-.03-1.47c-.88-.2-.31.78-.52.96-.29.24-1.64-1.32-1.49.3.18,1.85,1.38,2.36,2.26,3.74,1.04-.91,1.9-2.03,1.76-3.5l-1.98-.03Z"/>
  <path class="st102" d="M166.5,74l3.52.25c.51-1.41,2.45-2.12,3.03-2.98.45-.66-.23-2.14,1.21-2.77l.49,1,4.01-5-1.5,3.49,7.75-7.27c3.75,1.98,3.53-.74,5.56-2.43,1.15-.96,3.65-1.98,4.76-3.28.81-.96-.07-3.17,2.19-3.01l-.74,1.5,3.25-1.5c1.82.35,1.56.37,3,1l-1.74.97.74,2.53,1.7-.43c1.14,1.08,2.54,3.04.8,4.18.9.46,3.01,3.85,3.29,4.72.48,1.52-.33,2.45-.18,3.22.12.65,1.24,1.09,1.36,1.62.19.81-1.27,1.33-1.4,2.01-.15.76,1.19,1.9.95,2.91-2.18,3.01-3.41,5.88-7.51,6.28.39,1.34,3.42-.52,3.99,0,.26.9-.73,1.19-.89,1.86-.75,3.18-.64,2.46-1.88,5.12-1.41,3.02-3.02,7.64-4.72,10.28-.19.29-4.7,4.22-5.17,4.58-.41.31-2.99,1.18-3.55,1.15-2.34-.11-2.77-2.52-4.79-2.5,1.75-.88,1.22-2.23,1.74-2.99s4.65-1.36,2.8-3.79c-.7-.92-2.26-.74-2.54-1.71,1.27.28,4.9-3.53,4.9-4.33l-1.4-2.94c2.95-3.39,1.02-5.4-.3-8.79-1.81-.81-3.4-.4-5.21.05l.51-.99c-2.2-.64-2.87.16-4.74,1l-1.49-1.51c-2.42.35-7.39,5.53-8.03,5.5-2.02-.1.57-3.44,1.25-3.98-.9-.31-1.2.78-1.74.82-1.05.08-5.22-2.11-7.26-.82l.27,1.52-2.77,1.73,1.49.74c-2.12-.07-1.81,1.92-3.73,2.06-3.07.21-2.15-1.87-2.26-4.05,1.29-1.79,2.59-2.99,4.79-3.47,1.23-.27,3.07-.46,4.7-.81.66-.14,1.45.34,1.5.29.12-.11-.1-.76,0-1Z"/>
  <path class="st1" d="M75.5,78c2.05.27,2.45,1.1,4,2,1.72,1,2.62,1.97,5,1.5.42,2.17-1.95,2.33-3.5,2.5-1.04,1.02,4.73.43,5.27.48,5.26.43,10.76,2.33,15.73,4.02-.21.05-.42.28-.5.5-3.45-.79-6.39-2.08-10-2.5-.09-.01-.34-.44-.76-.44-2.15-.04-4.43,4.34-3.7,6.42l1.46.27c-1.35.28-2.63,3.24,0,2.75,0,.02.08.12,0,.5-2.76.58-1.17,3.4-3.5,4.75l.96.28c-1.07,1.59-1.04,2.38.04,3.96-.51.62-1.75,2.78-2,3.5l1.49-1c-1.02,2.18-1.18,2.69-1,5-.56.13-.72.74-1,1-.4.37-2.09,1.86-2.5,1.5l1.49-1.75c-.56-.76-1.12-1.06-2-.51-.23.14-3.19,3.6-3.48,4.02-2.12,3.03-.26,2.08-3.6,4.29-.9.59-3.64,3.4-4.16,3.35-.77-.38-1.21-1.8-2.24-1.17-1.62.84-.81,3.17,0,4.28-.86.79-1.05.16-1.5,0l-6.41-7.76,1.16-1.17c.4.17.93.88,1.25.92l3.3,4.53c2.7-.49.99-3.46,4.2-4.78-1.32-.24-2.62.22-4,.25-.31-2.78,1.23-2.96,3.5-3.25-1.04-1.46-3.53-.26-4.53-.97-.61-.43-.36-1.95-.73-2.77-.34-.75-1.51-1.26-2.01-2.51-.23-.58-.14-1.87-.25-1.98-.22-.21-2.97.29-3.47-1.29l1.49-1.74h-2.5s2.88-3.14,2.88-3.14c-.92-2.54,1.09-3.02,2.03-4.71.38-.68.64-1.77-.62-.62l-3.29,2.46,2-6.5c.64-.24,1.22-1.03,1.99-1.26,3.56-1.04,8.82-2.63,11.51.75-2.94.47-5.06,1.12-8,0l.52,2.44,1.98.55-.25-.99c1.92-.69,4.66-.6,6.4-1.02.17-.04,1.21-1.67,2.89-1.22l.45-2.77-.99.51c-.64-2.23,1.25-2.85,1.53-4.72-2.83-1.32-3.64-3.15-4.52-6.06-.35-1.17,1.98-.8,2.48-.73ZM78.73,104.3c-1.29-1.32-9.58-8.24-10.72-8.6-2.21-.69-3.34,2.03-5,3.1l1.48,2.2-2,.25c4.88,1.37,2.65,6.47,6.99,8.01l-1.5.74c.29,2.05,1.69,3.34,1.21,5.51,1.64.11,3.78,2.55,4.74,2.76,1.96.42,2.93-4,1.67-5.03l1.87-2.73-1.49-.76c1.54-2.01,3.71-1.8,2.59-4.69l.89-.56c-.26.03-.59-.03-.77-.21Z"/>
  <path class="st13" d="M180,256.5l-1.25,2-1.24-1.25c2.67-1.79,1.05-5.1-2.16-4.26-.75.19-2.17,4.16-3.85-1.49-.15-.51-.24-1.01-.5-1.5,1.07-.3,1.05.56,1.5,1,.56.54.78,1.75,2,1.5l-.49-4.5c.5.23.94.4,1.5.5,2.3.41,4.98-1.87,6.01-4l1.99.99-1.5-1.99,3,.99-.49-1.5,1.49.5-.54-2.2,1.05-.31-.99-1.49,1.5.5v-2.5s2,.49,2,.49l-.5-1.99h2s-2-1.75-2-1.75c1.22-1.38,3.24-1.09,4.62-2.24.71-.59.86-1.47,1.36-2.14.4-.52,1.27-.69,1.51-1.13.66-1.19-2.04-.07-2.04-2.5s2.68-1.29,2.04-2.49l-2.87-2.5c5.49-5.4-7.23-4.77-3.62-10l-.5-.53c-2.03.12-3.52-.6-5-1.99.11-.77,1.88,1.09,1.5-.5-.35-1.46-1.36-.75-1.5-1.75,5.59.36,1.28-2.81,1.5-3l4.5,1.49-.26-2c.65-.94,3.31,1.15,2.76-2.5,3.38,1.39.98-2.7-.5-3.75l1.95-.3c1-1.28-.36-2.37-.45-2.95-.02-.16,0-.34,0-.5-.1-3.25.74-5.32,0-9-.91-4.54-.24-2.26.42-4.85.22-.84-1.09-2.13.58-2.65.46,2.09,1.74,4.25,1.88,6.37.09,1.41-.49,2.23-.16,4.15.69,4.01,4.64,7.74,5.16,10.34,3.76,18.51-3.17,32.56-13.47,47.3-2.86,4.09-6.43,6.67-7.91,11.84Z"/>
  <path class="st35" d="M149,271c.76.1,7.15-.05,7.49-.23.95-.48.98-2.15,1.73-2.83.83-.75,2.77,1.19,3.53-1.43l2.25,1.49c.19-2.33-5.08-3.3-3.52-5.27,1.73-2.19,3.92-1.34,6.06-1.95,2-.56,5.25-3.08,7.13-1.82.2.13,2.4,3.59,2.59,4.04.8,1.84.47,3.41,1.02,4.98.59,1.68,3.66,4.12,4.58,6.42.65,1.62,1.45,5.5.8,7.11-.25.62-1.42,2.69-2.15,1.73-1.6-2.98.99-4.23.99-4.48,0-.69-4.45-4.53-6-3.25l-.29-2.56c-3.4-1.4-5.72,2.87-8.89-.41l-5.32,3.71c.36,1.69,6.4-.85,6.97-.24.12.13-.11,1.12.53,1.73.81.77,2.99.87,3.94,2.57.78,1.39.45,3.33,1.55,4.7-.17.21.48,1.3-.75,1.01-.52-.12.18-1.47-1.25-1.01l.03,2.72-1.48.3-.06,2.97c-.98-.39-1.53-1.62-1.99-2.5-1.23-2.31-1.02-5.23-3.49-6-.1,2.61.71,4.82,1.99,7,.29.5.37,1.32.5,1.5.08,3.08-1.63,1.51-3.2,1.55-.63.01-1.3.49-2.03.44-3.08-.19-6.56-3.18-4.77-6.49.86,2.31,3.45,6,6.19,3.98,2.6-1.92-1.82-10.46-4.44-10.99-1.62-.33.12,1.38-.46,2.03-1.07.46-2.41,1.25-3.3,1.98-.25.21-.92.4-.99.75-.02.12.44.49.49.75h-1c.41-3.15,2.31-6.07-.22-8.34l-2.24.3c.12-.87-1.07-2.81-1.79-2.88-.46-.05-1.42,2.11-1.25-.08.12-.94-.08-2.03,0-3,.15.04.33-.02.5,0Z"/>
  <path class="st65" d="M40.5,92.5c-.1-2.44,1.27-3.79,2.25-6h1.25s-1,1.49-1,1.49c2.04.74,4-.72,5.38-.91.96-.13,1.77.34,2.64.2,1.68-.28,3.28-1.07,4.97-1.28l-1.5,1,1,.5-1,1.49,1,.25-3,3c1.33.91,3.55-3.63,4.5-2.75-1.14.61-1.56,2.74-1.78,3.03-.15.19-3.35,1.3-4.38,2.05-.78.57-3.98,3.13-1.29,2.71,2.35-.36,2.03-1.25,3.45-2.3l-1,2.49c3.43.26,3.21-3.19,5.53-4.71,1.86-1.21,1.86-.24,1.97-.28l-2,6.5,3.29-2.46c1.25-1.15,1-.06.62.62-.95,1.69-2.95,2.16-2.03,4.71l-2.88,3.13h2.5s-1.49,1.75-1.49,1.75c.5,1.58,3.25,1.08,3.47,1.29.11.11.03,1.4.25,1.98.5,1.25,1.67,1.76,2.01,2.51.37.83.11,2.34.73,2.77,1.01.71,3.5-.49,4.53.97-2.27.29-3.81.47-3.5,3.25-1.07.03-2.49.13-3.5,0-.32-.04-.85-.76-1.25-.92l-1.16,1.17,6.41,7.76c-2.48-.87-11.25-10.41-13.5-13s-3.94-6.41-7-8.5c-1.91-3.73-4.33-9.3-4.5-13.5Z"/>
  <path class="st107" d="M102.5,57c4.14-5.35,11.23-6.91,17.81-7.44,2.86-.23,6.34.33,8.96-.04,1.57-.22,1.92-1.19,3.93-1s1.65,1.36,2.62,1.88c2.73,1.46,6.78,2.83,9.61,4.41,4.6,2.57,5.38,6.32,7.06,10.69-2.1.73-7.17-4.22-8.24-4-1.71,2.5-1.09,5.87-1.32,8.69l-2.44,1.31v-9.5c-2.09.59-3.6-.66-5.27-.98-1.1-.21-2.36.16-3.46-.04s-1.71-1.25-2.57-1.35c-.44-.05-4.29.34-4.85.47-1.2.28-1.94,1.71-3.35,1.4l-.47-2.3c-.8-1.18-1.45-.17-1.54-.21-1-.42-1.79-1.58-3.14-2.11-.81-.32-4.86-1.23-5.3-.83-.06,2.55-3.47,3.05-1.05.19,3.87-4.6,5.94,1.12,7.75-.21,2.5-1.7-3.07-2.96-4.07-3.03-4.11-.29-4.52,3.65-6.69,4.99-.09.06-2.07.44-2.18.42-.55-.1-1.15-1.21-1.82-1.42Z"/>
  <path class="st27" d="M62.5,75c1.82.47,3.71,1.06,5.5,1.5-2.57-.17,2.01,2.31,2.24,2.51,2.63,2.28-.4.74.76,2.48h-2.5s-.04,1.44-.04,1.44l-2.46.06,2,1.99-2.49.75,6,.76-1.04,2.97c-.39.28-1.56-.41-2.2-.38-2.27.11-7.78.86-9.9,1.51-.33.1-4.33,3.64-5.36,4.39-1.42,1.05-1.1,1.94-3.45,2.3-2.69.41.51-2.14,1.29-2.71,1.03-.75,4.23-1.86,4.38-2.05.22-.29.65-2.42,1.78-3.03-.94-.88-3.17,3.65-4.5,2.75l3-3-1-.25,1-1.49-1-.5,1.5-1c-1.69.21-3.3.99-4.97,1.28-.88.15-1.68-.32-2.64-.2-1.38.19-3.34,1.65-5.38.91l1-1.49h-1.25c-.99,2.2-2.35,3.55-2.25,5.99-.58-1.88-.97-4.88-1-7,0-.63.03-2.62.09-3.11.28-2.05,3.08-3.87,4.9-4.57.16-.06,3.06-.76,3.23-.77.84-.05,2.35.91,3.2.38.47-1.23,1.32-2.14.58-3.42,1.94.71,3.91-.34,5.74,0s2.55,3.69,5.26.99Z"/>
  <path class="st74" d="M149,263.5c.04-.88.14-3.03.83-3.54.91-.67,2.93-.76,2.25.79l.92.25,2.75-6.99,4.21,1.47,2.55-5.48c3.08,2.57,3.09-.13,4.81-1.43,1.96-1.48,4.67-.68,5.93-3.56l1.5,1.98.75-2.49,1.49.51c.08-2.1,1.43-3.48,3.5-2.5.04-1.77,1.12-2.96,2.54-3.8l-2.03-2.95,1.99.75c.91-2.39-2.61-3.92-2.98-4.76-.86-1.95,2.15-.7,1.48-1.98-2.29-.78-2.18-2.84-3.06-3.96-1.13-1.41-3.11-2.86-4.39-4.09-.53-.52-1.27-.73-1.04-1.7,2.91,1.16,4.93,5.2,8.49,3.49-.14,2.18,1.93,2.75,3.26,4,1.22.21.83-.89.49-1.49-.73-1.29-2.51-1.74-3.25-3l4.5.99-2-2.49c1.94.67,4.54.03,1.95-1.7-2.82-1.88-1.2-1.56-2.05-2.7-.16-.21-3-.88-3.39-1.86l2-.5c-1.87-2.33-6.11-7.79-8.99-4.5.7,1.89,5.02,2.84,5.49,4.01.42,1.05-1.18.87-1.73.73-3.6-.94-5.88-7.85-10.26-5.49l-2.5-4.49,1.49-.76-3.49-4.01,1.49-.49-2-2.25,5,2.49-2-2.25,1.5-.25-1.5-1.99,4.76,2.99.76-1.49,2.24,1.49.75-1.99,1.99.5-1.5-3.26c2.57-.76,3.18.84,4.26,1.26.92.36.59-.81,1.06-.97,1.28-.43,3.28.48,4.18,1.47.64-.79-2.27-3.38-.24-3.01l6.24,4.01-.99-4c1.51.05,2.63,1.18,3.76,1.99,1.49,1.08.56-.37.74-.99.09.58,1.44,1.67.45,2.95l-1.95.3c1.48,1.05,3.88,5.14.5,3.75.55,3.65-2.1,1.56-2.76,2.5l.26,2-4.5-1.49c-.22.19,4.09,3.36-1.5,3,.14.99,1.15.29,1.5,1.75.38,1.59-1.39-.27-1.5.5,1.48,1.39,2.97,2.11,5,1.99l.5.53c-3.61,5.23,9.11,4.6,3.62,10l2.87,2.5c.64,1.2-2.04.06-2.04,2.49s2.7,1.31,2.04,2.5c-.25.44-1.11.61-1.51,1.13-.51.67-.66,1.55-1.36,2.14-1.38,1.15-3.4.86-4.62,2.24l2,1.74h-2s.5,2,.5,2l-2-.49v2.5s-1.5-.5-1.5-.5l.99,1.49-1.05.31.54,2.2-1.49-.5.49,1.5-3-.99,1.5,1.99-1.99-.99c-1.03,2.13-3.71,4.41-6.01,4l-1.93-1.41-1.02.97c-.16.27,2.36,3.23-.05,2.94-.45-.43-.43-1.3-1.5-1,.26.48.35.98.5,1.5l-4-.5c1.03,1.87-.48,1.41-1.27,3.01h-.98s-.25-1.01-.25-1.01h-.99c.65,2.97-3.92,3.77-6.21,4.46-2.54,1.73,4.29,2.96,5.73,2.81,3.59-.37,10.7-5.72,12.62-5.2,2.04.55.77,2.19.9,3.14.38,2.69.87,6.43,1.96,8.79,1.63,3.51,3.34,6.97,5,10.5l.43,6.68c-.35,1.02-1.56.81-2.43.82l-.5,2h-.5c-.14-1.1-.94-1.38-1.5-2,.49-3.51-2.93-3.88-4.77-5.99-2.7.72-.07,3.69-.23,5.49-.09.24-.38.35-.5.5-1.1-1.37-.78-3.31-1.55-4.7-.95-1.7-3.14-1.8-3.94-2.57-.64-.61-.41-1.6-.53-1.73-.57-.61-6.61,1.92-6.97.24l5.32-3.71c3.16,3.28,5.48-.99,8.89.41l.29,2.56c1.54-1.28,6,2.56,6,3.25,0,.25-2.58,1.5-.99,4.48.72.96,1.89-1.1,2.15-1.73.65-1.61-.15-5.49-.8-7.11-.92-2.3-4-4.74-4.58-6.42-.55-1.58-.21-3.15-1.02-4.98-.19-.44-2.39-3.9-2.59-4.04-1.87-1.26-5.13,1.26-7.13,1.82-2.14.6-4.33-.24-6.06,1.95-1.56,1.97,3.71,2.94,3.52,5.27l-2.25-1.49c-.75,2.62-2.7.68-3.53,1.43-.75.68-.78,2.35-1.73,2.83-.35.18-6.74.33-7.49.23l.32-2.51c1.95.11,4.11-.49,5.1-2.32-.2-2.69-2.11-2.56-3.67-4.15-.41.62-1.35,1.03-1.75,1.47Z"/>
  <path class="st80" d="M75.5,133.5c.13.1.71-.08,1,0l-.46,1.45,1.72,1c.52-.39.76-1.03,1.24-1.46.16-.15,1.37-1.26,1.5-.75l-1.99,3,1.99.25c-.28,1.04-2.19,1.27-2.39,2.3-.15.77.96,2.97.84,3.14-.14.19-1.16.15-1.39.87-.32,1,.55,3.91,1.45,4.69-1.61,1.17-1.26,3.31-2,5l2.75-1c.77,2.02-2.59,1.25-2.75,3.49.2.17,3.12-1.24,3.5-1.5.45.99,1.56.28,2.18-.07,1.54-.88,3.41-2.77,4.32-3.43.24-.17.7-.38,1-.5,1.75-.68,3.35.2,4.5-2.5.37.03,1.76-.82,2,0,.03.41,1.52,1.88,1.01,3.01h1.99c.05.18.78.41.85.64.38,1.24-.03,4.84,2.15,2.36.33.95.61,2.29,1,3-.44.42-1.75,1.13-2,1.5l-2-2.75.99-.74-1.25-.49c-1.31.66-.05,1.79-.46,2.49-.72,1.24-2.19.43-2.29.5-2.16-1.97-.06-2.82.2-3.98.23-1.03-.31-2.44.29-3.52l-2.49,2c-1-1.09,2.55-2.2.25-2.5l-7.25,4.75,4-1.25c-.81,1.78-1.82,3.46-1.02,5.46l-1.98.79,2.49-.25-1.5,2.49,2,.51c-.15.47-.49,1.02-.5,1.49l-2.5.5.79-1.47-.54-1.01c-.79,1.74-2.86.29-3.25.5-.08.04.45.76.06,1.26-.46.58-1.57.83-2.06,1.49l2,1-2.98,1.78-.02,1.46c.34.51,3.31-.32,2.99,1.25-.22,1.11-1.89.24-2.48.49-.56.24-2.17,2.58-2.01,2.76,1.23.35,1.88.72,2.75-.49l.7,1.17.05,1.82c-.51.45-2.28,1.78-2.76,1.99-1.26.55-.08-1.47-.99-1.48l-3.25.99.5,2.5,1.49-.5-.54,2.2,1.05.31c-2.12,1.39-2.1,2.78.5,3.5-1.43,2.1-2.38,2.41-.87,4.86l2.37.13.5,1.5c-1.56,1.46-2.33.98-3,3.5h-.5c-1.66-3.8-.72-7.76-1.01-11.74-.21-2.88-1.51-6.04-1.03-9.03l2.04-2.23c-1.46.56-2.16.27-3.39-.61.44-5.96.48-12.12.89-18.14.45-6.5,2.21-13.24.99-19.76Z"/>
  <path class="st60" d="M128.5,221c-.27.86-.58,1.58-.3,2.51,1.01,3.31,2.9,8.02,3.53,11.43.22,1.18-.46,2.94-.11,4.72.33,1.66,1.84,1.44,1.8,2.47-.11,2.88-3.14,5.7-2.42,8.87-1.29.15-.8,0-1.02-.75-.45-1.53.2-3,.04-4.49-.08-.7-.3-1.42-1.01-.75-.19,1.9-2.08,4.24-2.41,5.87-.09.44-.11,4.93-.01,5.26.22.78,3.58,4.88,4.41,5.63,1.56,1.41,4.08,2.29,5.35,3.4.98.86,4.29,4.79,2.16,5.59l1.99.75c.17-.04.42.07.5,0v.5c-2.04.34-6.06-.82-8-1.5.72-1.03,2.35-1.37,1.78-3l-11.53-10.51c-.34-.56-.36-1.35-.26-1.98.17-1.05.91-2.04,1.02-3.73s-.43-3.38-.1-5.04l-.42-.23c.4-2.49,2.06-4.5,2.78-6.97.34-1.16,1.65-6.86,1.68-7.86.05-1.64-.85-2.63-.86-3.51-.01-.67.76-1.09.76-1.8,0-1.01-.34-4.51-1.17-4.81l-1.4-.08c-.54.69,0,1.3-1.29,1.02-.1-1.4.39-3.07-.47-4.28-1.21-1.7-2.46,1.25-4.23-.17l-.3-1.55c-.85.13-.93,1.39-1.51,1.76-.73.47-2.66-.67-2.48,2.74-1.91,2.13-.99,2.72-1.74,4.51-.91,2.19-2.34,4.29-3.26,6.49l-3,2c-.58-.65,2.63-2.94,1-4,.2-.3.29-.71.5-1,.68-.97,1.37-1.99,2-3,.53-.86,1.85-1.78,1.95-3.35l-.95-.9c3-1.43.92-4.12,2-5.75.33-.5,1.91-1.54,2.25-2.49,1.81,3.26,4.19,1.28,5.94,1.61,1.57.29,3.12,4.82,5.82,3.59.67.46.67,2.09.99,2.8Z"/>
  <path class="st38" d="M115,266c-.94-.46-3.18-1.8-3.38-2.81-.22-1.14,2.55-6.6,2.88-6.19-.27,2.42.52.94.88,1.16,1.65,1.04,1.07,3.15,1.13,4.83l.5-4.49.5,1.5c1.53.22.77-.35,1-1,.01.03.34-.15.49.33.25.81-.06,2.19.57,3.1l1.64.02c.15,2.74,3.03.51,2.8,3.56.94.26.8-.37,1-.5.21-.15.06-.77.99-.5,1.29,2.53.98,4.78,1.01,7.5,0,.09-.54.71-.53,1.69.04,4.37,2.21,11.55.93,15.95-.46,1.57-3.9,4.59-3.9,6.85-.44.34-2.18-2.28-2.49-2.5-1.49-2.52.52-3.1.9-4.35,1.18-3.9-.31-9.95-.42-13.93-.04-1.38,1.29-4.12.03-4.99-.42-.29-1.34-.14-1.97-.55-1.88-1.2-1.44-3.32-2.15-4.08-.59-.62-1.9-.37-2.39-.61Z"/>
  <path class="st99" d="M184.5,118c-4.82,5.27-2.59,14.21-.64,20.39.74,2.36,1.49,2.44,2.14,3.61l-1.25,1,1.25,2.24c-.29,1.36-2.64-.4-2,1s1.98,1.04,3,1.26c.17.04.38-.06.5,0l-2.5,1.01,2.49,2.75-1.45.83c-.05.27.46.36.46.41-.15,2.28-1.56,4.77-1.22,7.02-2.42,1.28-5.19.38-6.78-1.77l1-.5c-1.86-2.02-.89-3.93-4.5-3.76-1.86-1.76,3.92.01,4.27.02.59.01,3.74-.51,3.73-.77l-4.5-5c3.4-1.43.88-4-.12-6.43-1.11-2.72-1.5-2.17-2.27-3.68-1.27-2.47-.56-5.77-4.11-7.39l1.99.75c.4-2.26-4.65-3.5-4.99-4.25-.21-.46-.16-1.63.74-1.24,1.26.53,3.41,3.35,4.53,4.06.63.4.69-.07.73-.06,2.41.6.1,2.72,3,3-.92-2.73.91-3.9,1.4-5.36.3-.91-.51-3.4.14-4.6l1.97-.04-.27-3.52c.85-.9,2.39-.64,3.27-.98Z"/>
  <path class="st48" d="M90.5,236c1.11,1.35,2.09,1.19,1.96,3.25l2.04.75-.99,1.24c1.16.76,1.97,1.19,2,2.75l2.99-1-.99,2.49,2.49-.5-.5,1.49h.99s1.01-1.49,1.01-1.49v2.5s2.5-1.5,2.5-1.5v2.5s2.5-2.5,2.5-2.5v3.5s1.5-.5,1.5-.5l-.99,3,.94-.44.55.94,1.26-1.99c.36-.13.36.84.75,1-.73.8-4.33,4.07-3.5,5l1.99-1-1.5,3.26c1.41.38.46,1.07,1.25,2.2,1.09,1.57,5.64,5.42,5.18,7.17-.18.67-1.18.95-.92,1.87h1.51s-.38.92-.38.92l.87.33c-.89.78-1.72,1.46-1.49,2.76l1-.25c.35,1.44-.88,2.18-1.28,3.23-.27.72-.06,1.58-.25,2.14-.38,1.08-3.99,2.72-1.47,4.87l-1.95.05-2.05,5.95c-.24-1-1.43-2.1-1-3.5l1.49.5c-.74-1.71.32-4.03,1.3-5.45.39-.57,1.5-.78,1.63-1.34.09-.42-.42-1.27-.43-1.95-.02-1,2.2-1.89-.5-2.26.19-.31.3-.69.5-1,1.21-1.93.66-1.62,1-3.5.3-1.63.45-3.25.89-4.84l-.35-.93c-.26-.38-.89-.53-1.04-.73-1.05-1.41-2.14-2.87-3.5-4-2.13-3.8-5.79-5.75-7.76-9.5-4.04,1.72.4,4.21.7,5.35.34,1.26-.9,1.53-.95,1.65-1.4-2.5-3.81-4.16-5.5-6.25-.59-.73-.82-1.9-1.5-2.75,1.6-.25.71-6.59.44-6.93-.16-.2-3.36.24-1.43-3.56l-1.46-.03c-.28-.27.09-1.48-.04-1.97l.5-1Z"/>
  <path class="st107" d="M100,76c.8,3.29,5.69,1.61,8.23,2.02,1.43.24,2.25,1.57,3.78,1.48l-1.34,2.53c-6.33-2.28-2.89,4.28-8.16,4.47l.5,1.99c-.32.06-.71-.06-1,0-4.97-1.69-10.47-3.59-15.73-4.02-.54-.04-6.32.54-5.27-.48,1.55-.18,3.92-.34,3.5-2.5-2.38.47-3.28-.5-5-1.5,2.49-.45,4.77,1.68,7.12,1.41,2.62-.3,7.01-3.16,8.38-5.41l.29.38c1.56-.38,3.1-.47,4.71-.38Z"/>
  <path class="st56" d="M75,203c-.6,1.37-4.52,6.3-4.75,7.03-.6,1.9-.78,4.86-1.75,7.47-.28.75-.58,1.06-1,2.5-.57,1.94-1.24,2.42.32,4.53,1.35-.17,3.08.25,4.33-.13.73-.22,1.05-1.2,2.12-1.4,4.32-.8,2.73,4.79,4.23,7-.72.53-1.34.65-1.52,1.75-.19,1.18,1.49.25,1.02,1.75l-4.27-.05c-1.17,1.01-.99,2.62-1.72,3.82-.85,1.39-4.99,4.12-5.25,4.7-.51,1.15.96,2.98-2.26,4.29s-3.92,0-4.01,4.74c-.32.19-.67.32-1,.5.44-2.04-.08-4.31,1.5-6,1.15-.25,2.72.26,3.77-.97-.86-2.16.6-1.94.72-2.39.17-.61-.2-1.46.11-2.05.26-.51,2.68-.85,3.32-1.93.2-.34,1.97-7.09,1.99-7.57.11-2.55-3.22-3.53-5.35-3.17l-.58-2.16.97-.33-1.44-1.45c.91-3.31,1.97-9.14,3.24-12.01.8-1.8,3.27-3.94,3.97-5.53,1.94-4.38.08-5.34,4.28-9.47,1.01,1.6-.68,1.94-.91,2.85-.19.77.46,2.38-.09,3.65Z"/>
  <path class="st98" d="M115,266c.49.24,1.8-.01,2.39.61.71.76.27,2.88,2.15,4.08.63.4,1.56.26,1.97.55,1.26.87-.07,3.6-.03,4.99.11,3.97,1.61,10.03.42,13.93-.38,1.25-2.4,1.83-.9,4.35-.05-.03-.91-.47-1-.5.59-1.83-.93-3.83-.94-5.25,0-2.37,3.19-4.33-1.31-6.25l-1.26,5c.23-.91-.16-2.47,0-3.5-1.21.31-.87,1.91-1.38,2.86-1.08,1.98-.99,2.02-1.61,3.64-.27.7-1.21,3.11-1.64,3.38-.49.31-1.12.02-1.36.12-1.36,0-1.64.45-1.45-1.19.4-3.41,1.08-5.39,2.97-8.01.24-.33,1.02-.45,1.26-.81.46-.71-.31-1.69-.07-2.01.42-.58,1.83-.3,2.55-.96.97-.89,1.79-7.21,1.65-8.62-.26-2.56-2.82-3.85-2.83-4.13,0-.31,1.53-1.22.42-2.26Z"/>
  <path class="st55" d="M89.5,236.5l-.53,4.74,1.57.54-.03,3.72,1.99-1c.04.91-.24,1.78-.3,2.68-.05.77,1.06,1.53-.69,1.32-.95-1.16-1.95-2.79-3.5-3,.27-.63.32-2.74.47-3.79.12-.8.09-.79-.73-.72-.71.14-4.38,2.43-4.99,3.01-1.93,1.86-3.05,5.98-6.61,5.88-.82-.02-1.26-1.12-2.15-.67-.38.19-3.88,6.89-2.5,7.79-4.52,3.22-4.72,4.43-11,4.5l.74-2.5c-1.56.75-2.19,1.99-4.24,1.5.84-1.71-.23-2.39-2-2-.71-1-.41-.61,0-1,.92.22,2-.5,2.77-.44.96.07,2.09,1.38,2.99,1.28.72-.08,1.13-1.66,2.24-1.33l.24,1.49c1.59-1.21,4.01-1.52,4.99-3.52.28-.57-.12-1.36.29-2.14,1.26-2.42,2.65-5.65,5.47-5.83l.25,1.5c.37-.39.78-.73,1.25-1,3.92-2.21,9.31-8.27,13-11.5.17-.14.92-.57,1-.5.08.31-.08.77,0,1Z"/>
  <path class="st95" d="M107.5,261c1.36,1.13,2.45,2.59,3.5,4,.7,3.35-.75,2.64-2.02,4.24-.71.89-.74,3.51-1.1,4.14-.25.43-2.19.91-2.68,2.61-.24.83-.32,3.26.8,3.25-.57,1.24-2.22,2.78-2.64,3.92-.36.97.11,1.64-.09,2.35-.37,1.3-2.52,4.11-3.27,5.99-.89-2.33,1.57-4.99,1.78-6.47.1-.68-.79-1.06-.71-1.68.08-.59,1.97-2.2,1.42-2.84-.74-.86-1.1.65-1.29.94-.45.64-1.43,1.98-1.7,2.56l-.8-1.03-3.7,2.03c.42-1.12,4.72-7.3,5.5-7.75s1.64-.15,2.43-.3l.56-1.2c-3.12-.96-.4-6.38,2.48-5.77.91-2.26-1.18-2.43-1.38-3.84-.11-.77.31-1.6.12-2.15-.1-.27-2.23-3.4-2.47-3.48l-.67.1c-.26,1.65-.53.65-1.08.4.07-.87-.34-1.78.33-2.54,1.88-2.13,2.97.37,4.51,1.46.67.48,1.93.88,2.16,1.08Z"/>
  <path class="st43" d="M110.5,251.5c.09.04,1.73.14,2,0,0,.33.01.67,0,1-.03,1.18-.19,2.63,0,4l1.99-2.5.56,2.94c2.11-.21,2.63.3,3.44,2.06.48-1.37.54-1.16,2-2-.21,1.63.02,3.42.53,4.98l.97-.49v1.51c1.17-.92.95.28,1.1.34.32.13.78-.37.86-.31.21.16.27,2.1,1.04,2.47-.19.14-.06.76-1,.5.23-3.05-2.65-.82-2.8-3.56l-1.64-.02c-.64-.9-.32-2.28-.57-3.1-.15-.48-.48-.3-.49-.33-.23.65.53,1.23-1,1l-.5-1.5-.5,4.49c-.06-1.69.52-3.8-1.13-4.83-.36-.23-1.15,1.26-.88-1.16-.33-.41-3.1,5.05-2.88,6.19.2,1.01,2.44,2.35,3.38,2.81,1.11,1.03-.42,1.95-.42,2.26,0,.28,2.57,1.57,2.83,4.13.14,1.42-.68,7.74-1.65,8.62-.72.66-2.13.38-2.55.96-.24.33.53,1.31.07,2.01-.24.37-1.02.49-1.26.81-1.89,2.62-2.57,4.6-2.97,8.01-.19,1.64.09,1.19,1.45,1.19-1.19.5-3.72,1.59-4.5,2.5v-1s-1,.5-1,.5c.1-.17-.22-.9.11-1.37.94-1.37,3.21-1.24,2.39-4.63l2.05-5.95,1.95-.05c-2.53-2.15,1.08-3.8,1.47-4.87.2-.56-.02-1.42.25-2.14.4-1.05,1.63-1.79,1.28-3.23l-1,.25c-.23-1.3.61-1.97,1.49-2.76l-.87-.33.38-.91h-1.51c-.26-.92.75-1.2.92-1.87.46-1.74-4.08-5.6-5.18-7.17-.79-1.13.17-1.82-1.25-2.2l1.5-3.26-1.99,1c-.83-.93,2.77-4.2,3.5-5Z"/>
  <path class="st90" d="M200,52l-3.25,1.5.74-1.5c-2.26-.15-1.37,2.06-2.19,3.01-1.11,1.3-3.61,2.32-4.76,3.28-2.03,1.69-1.81,4.41-5.56,2.43l-7.75,7.27,1.5-3.49-4.01,5-.49-1c-1.44.63-.76,2.11-1.21,2.77-.58.86-2.52,1.57-3.03,2.98l-3.52-.25c1.02-2.43,3.22-4.63,3.5-7.5.88-.8,1.81-1.92,2.5-2.5,2.04-1.72,3.28-2.51,5.5-4,2.04-.33-.05,1.6-.25,2-1.31,2.58,2.05-.57,2.29-.7,4.88-2.56,4.57-3.03,8.49-6.02,1.27-.97,3.25-1.1,3.97-2.78,3.34-.9,4.01-1.17,7.5-.5Z"/>
  <path class="st71" d="M64.5,223.5l1.44,1.45-.97.33.58,2.16c2.13-.36,5.46.62,5.35,3.17-.02.47-1.79,7.23-1.99,7.57-.64,1.08-3.06,1.42-3.32,1.93-.31.59.06,1.44-.11,2.05-.12.45-1.58.23-.72,2.39-1.05,1.23-2.62.72-3.77.97-.16.03-.34-.04-.5,0l1.49-1.75c-.5-.71-1.16-.85-1.99-.75.68-1.11,1.19-3.85,2.44-5.17l-2.44-2.33c1.11-3.85,3.19-7.22,4.5-12Z"/>
  <path class="st105" d="M68,76.5c2.38.58,4.65,1.26,7.17,1.09l.33.41c-.5-.07-2.83-.44-2.48.73.88,2.91,1.69,4.74,4.52,6.06-.28,1.87-2.17,2.48-1.53,4.72l.99-.51-.45,2.77c-1.69-.46-2.73,1.18-2.89,1.22-1.73.41-4.48.32-6.4,1.02l.25.99-1.98-.55-.52-2.44c2.94,1.11,5.06.46,8,0-2.69-3.39-7.95-1.79-11.51-.75-.77.22-1.35,1.02-1.99,1.26-.11.04-.11-.93-1.97.28-2.32,1.52-2.1,4.97-5.53,4.71l1-2.49c1.02-.76,5.02-4.29,5.36-4.39,2.11-.65,7.62-1.4,9.9-1.51.65-.03,1.82.66,2.2.38l1.04-2.97-6-.76,2.49-.75-2-1.99,2.46-.06.04-1.44h2.5c-1.16-1.74,1.87-.21-.76-2.49-.23-.2-4.81-2.68-2.24-2.51Z"/>
  <path class="st105" d="M67,127.5c-.82-1.11-1.63-3.44,0-4.28,1.04-.64,1.47.79,2.24,1.17.52.05,3.26-2.75,4.16-3.35,3.35-2.2,1.48-1.26,3.6-4.29.29-.42,3.26-3.88,3.48-4.02.88-.55,1.44-.25,2,.51l-1.49,1.75c.41.36,2.1-1.12,2.5-1.5.78,1.24-1.24,1.73.5,2.75-1.73.13-.29,2.1-.5,2.75-.97,3.05-2.7,6.89-3.5,10-.32,1.25-.35,1.77-.5,3l-1.49,1.5c.44-1.19-1.32-2.73-1.32-3.26,0-.28.62-.69.62-.99,0-.65-.81-1.26-.8-2.02s1.19-1.5,1-1.73c-.08-.1-2.22-.23-.16-1.54,1.94-1.24,2.69-1.02,4.18-3.69.45-.8.6-1.34.47-2.27l-2.25,3-.74-2c-.96-.95-6.56,4.69-6.05,6.45l-1.95.05c.04,2.02,1.9,4.04-1.5,3.5-.34-.21-2.41-1.38-2.5-1.5Z"/>
  <path class="st6" d="M71.5,257c-1.39-.9,2.12-7.6,2.5-7.79.89-.45,1.33.65,2.15.67,3.56.1,4.68-4.02,6.61-5.88.61-.59,4.28-2.87,4.99-3.01.81-.07.84-.08.73.72-.15,1.05-.2,3.16-.47,3.79-.12.29-3.58,4.74-3.88,5.01-3.21,2.9-8.71,3.7-12.62,6.49Z"/>
  <path class="st88" d="M123,255c-.11.63-.09,1.42.26,1.98l11.53,10.51c.56,1.63-1.06,1.97-1.78,3-3.41-1.21-4.01-1.91-6,2-.03-2.72.28-4.97-1.01-7.5-.93-.27-.78.35-.99.5-.77-.37-.83-2.31-1.04-2.47-.08-.06-.54.44-.86.31-.15-.06.07-1.26-1.09-.34v-1.51s-.98.49-.98.49c-.51-1.56-.74-3.35-.53-4.98.05-.37.84-1.22.5-2.01h2Z"/>
  <path class="st78" d="M69.5,129c3.39.55,1.54-1.47,1.5-3.5l1.95-.05c-.51-1.76,5.09-7.4,6.05-6.45l.74,2,2.25-3c.13.93-.02,1.47-.47,2.27-1.5,2.67-2.24,2.45-4.18,3.69-2.06,1.31.07,1.45.16,1.54.19.23-.99.96-1,1.73s.8,1.37.8,2.02c0,.29-.62.7-.62.99,0,.52,1.76,2.06,1.32,3.26l1.49-1.5c-.1.86-.22,1.68-.5,2.5-.48.42-.73,1.07-1.24,1.46l-1.72-1,.46-1.45c-.29-.08-.87.09-1,0-.86-.62-1.42-1.92-2.53-2.72-1.03-.74-2.32-1.09-3.47-1.78Z"/>
  <path class="st81" d="M62.5,75c-2.71,2.7-3.42-.65-5.26-.99s-3.8.71-5.74,0c.74,1.28-.1,2.19-.58,3.42-.85.54-2.36-.43-3.2-.38-.17.01-3.07.71-3.23.77-1.81.7-4.61,2.52-4.9,4.57-.07.49-.1,2.48-.09,3.11l-1.43-5.64c2.95-2.9,3.88-6.69,8.73-6.82,5.29-.14,10.7.67,15.7,1.96Z"/>
  <path class="st4" d="M148.5,274c-.17,2.19.79.03,1.25.08.72.08,1.91,2.01,1.79,2.88l2.24-.3c2.53,2.27.63,5.19.22,8.34-.1.79.15,1.42-.75,1.99-.45-1.07-2.3-.78-2.66-1.08-.25-.21-.23-1.48-.64-2.12-.35-.54-1.19-.66-1.33-.89-.56-.9.69-3.25-1.12-1.89.12-2.47.72-4.74,1-7Z"/>
  <path class="st100" d="M111.5,271.5c-1.44.43-2.57,1.04-3.5,2.25,1.75.28,1.86-1.12,2.5,1.25-.2.31-.31.69-.5,1-.26.42-1.15.88-1.55,1.74-.67,1.42.1,3.39-1.95,4.51l1.01.49v.99c-1.53.69-1.97,2.26-2.52,3.76l-.74-.99c-.69.37-.54,1.02-.75,1.5-.83,1.87-2.9,5.7-3,7.5-1.86-1.87-1.23-2.18-.5-4s2.9-4.68,3.27-5.99c.2-.71-.26-1.37.09-2.35.42-1.14,2.06-2.69,2.64-3.92-1.12.01-1.04-2.42-.8-3.25.49-1.69,2.43-2.18,2.68-2.61.36-.63.39-3.25,1.1-4.14,1.27-1.6,2.72-.89,2.02-4.24.15.2.78.35,1.04.73l.35.93c-.43,1.59-.59,3.21-.89,4.84Z"/>
  <path class="st52" d="M157.5,286.5c-.35-.94-.44-1.98-.53-2.98l-1.47-.02c.88-.73,2.22-1.52,3.3-1.98.58-.65-1.16-2.36.46-2.03,2.62.53,7.04,9.07,4.44,10.99-2.75,2.02-5.33-1.68-6.19-3.98Z"/>
  <path class="st58" d="M60.5,245.5c.16-.04.34.03.5,0-1.58,1.69-1.06,3.96-1.5,6-.51,2.37-3.51,4.57-6,5,.14-.56.6-3.84.73-3.99.49-.62,2.73-.91,3.27-2.26.22-1.46-1.44-.54-2-.24-1.57-2.75-4.31,3.07-5.85,3.42-.85.2-1.89-.59-2.65-.42h2.49c-.08-1.54,2.96-3.97,4.21-4.54,1.03-.48,1.76-.25,2.4-.47.81-.28,1.62-1.87,4.39-2.48Z"/>
  <path class="st10" d="M179.5,285c.56.62,1.36.9,1.5,2-2.04,1.61-1.27-1.47-3.24-1-.55.13-.89,5.25-1.75,6.25-1.35,1.57-3.78,1.21-5.51.74-.26-1.96,3.53-2.16,3.75-2.47.88-1.98.62-3.99.75-6.03.07-1.14-.32-1.27,1-1.75l-1-1.25c1.96-.14,3.21,2.09,4.5,3.49Z"/>
  <path class="st28" d="M149,263.5c.4-.44,1.34-.86,1.75-1.47,1.55,1.59,3.47,1.46,3.67,4.15-.99,1.83-3.15,2.42-5.1,2.32l-.32,2.51c-.17-.02-.35.04-.5,0-.42-.11-1.75-1.11-2-1.5-.76-1.17,1.52-4.92,2.5-6Z"/>
  <path class="st59" d="M166.5,74c-.1.25.12.89,0,1-.06.05-.84-.43-1.5-.29-1.63.34-3.47.54-4.7.81-2.2.49-3.5,1.69-4.79,3.47-.06-1.14.12-2.4,0-3.5,1.17-.48,2.39-.88,3.5-1.5,2.35,1.34,3.09-1.91,5-1.21.87-.53.71-2.26,1.13-2.67.81-.79,3.64-2.51,4.87-3.63-.28,2.87-2.48,5.07-3.5,7.5Z"/>
  <path class="st101" d="M192.5,52.5c-.72,1.68-2.7,1.81-3.97,2.78-3.92,2.98-3.61,3.46-8.49,6.02-.24.13-3.6,3.29-2.29.7.2-.4,2.29-2.33.25-2,4.27-2.87,9.52-6.16,14.5-7.5Z"/>
  <path class="st23" d="M120,294c-.41-.15-1.35.2-2.04-.23.1-2.86-1.57-2.04-2.96-3.77.26-.29.3-1.13.55-1.57s.93-.85.95-.93l1.26-5c4.5,1.93,1.3,3.89,1.31,6.25,0,1.42,1.52,3.42.94,5.25Z"/>
  <path class="st44" d="M77.5,195c-.27,1.01-.03,2.45-.5,3.5l1.75-1.5.74,1c.07-.67.39-1.64,1.25-1.49,1.45.25-.97,3.17.26,4l-.75,1.5-.74-.99-1.76,2.99-.52-1.02-2.23.03c.55-1.26-.11-2.87.09-3.65.23-.92,1.92-1.26.91-2.85.27-.27.35-1.27,1-1.5h.5Z"/>
  <path class="st60" d="M55.5,250c-2.51,1.37-3.71,3.69-5.5,5.75.72.23,1.29.44,2,.75l-1.79.48.29,2.02c-.47-.22-1.35,0-2.19-.55-1.28-.84-3.48-4.97-1.31-5.45.76-.17,1.8.62,2.65.42,1.54-.36,4.28-6.17,5.85-3.42Z"/>
  <path class="st51" d="M175,284.5c-.13,2.04.12,4.04-.75,6.03-.22.32-4.01.51-3.75,2.47-.35-.09-1.06.24-1.4-.09-.23-.22-.1-1.06-.38-1.38-.49-.56-1.19-.47-1.22-.53-.13-.18-.21-1-.5-1.5h1.5s0-1,0-1c.47.88,1.01,2.11,1.99,2.5l.06-2.97,1.48-.3-.03-2.72c1.43-.46.73.88,1.25,1.01,1.22.29.58-.8.75-1.01.12-.15.41-.26.5-.5h.5Z"/>
  <path class="st96" d="M184,277.5c.09.19.77.46.99.88,1.26,2.48,1.79,4.66,2.33,7.38-1.13,1.98-4.98,4.16-5.81,1.23l.5-2c.87,0,2.09.2,2.43-.82l-.43-6.68Z"/>
  <path class="st45" d="M107.5,261c-.24-.2-1.49-.6-2.16-1.08-1.54-1.09-2.63-3.59-4.51-1.46-.67.76-.26,1.68-.33,2.54-.17-.08-.64.17-.92-.07-.16-.22-.19-2.12-.08-2.43.04-.12,1.29-.39.95-1.65-.31-1.14-4.74-3.63-.7-5.35,1.97,3.75,5.62,5.7,7.76,9.5Z"/>
  <path class="st98" d="M104.5,289c-.9,1.33-1.16,2.47-1.5,4-.32,1.4-1.05,2.83-.26,4.51.62,1.13,2.05-1.16,2.26-1.51l.99-.5v1c-.89,1.04-.62,3.12-2.61,2.92-1.89-.19-2.99-2.12-2.89-3.92s2.17-5.63,3-7.5l1,1Z"/>
  <path class="st87" d="M147.5,281c1.8-1.35.56.99,1.12,1.89.14.23.98.35,1.33.89.42.64.4,1.91.64,2.12.35.3,2.2.02,2.66,1.08.9-.57.64-1.2.75-1.99h1c.11.63-.35,3.09-.77,3.98-.24.51-1.81,1.98-2.23,1.52.24-3.47-3.52-4.24-4.64-7.66-.42-1.29.11-1.31.14-1.84Z"/>
  <path class="st11" d="M95,285l3.7-2.03.8,1.03c-.04.09-.26,1.29-.5,2-1.15-2.32-1.98,1.06-2.5,1.75-.56.75-1.42,1.27-1.99,2.01-.2.49,1.25,1.59,1.49,1.74l-3.49-1.75c1.8-1.23,1.83-3.01,2.49-4.75Z"/>
  <path class="st51" d="M90,237c.13.49-.23,1.7.04,1.97l1.46.03c-1.93,3.8,1.27,3.36,1.43,3.56.28.35,1.17,6.68-.44,6.93-.21-.26-.64-.56-1-1,1.75.22.64-.55.69-1.32.06-.91.35-1.77.3-2.68l-1.99,1,.03-3.72-1.57-.54.53-4.74c.07.18.46.36.5.5Z"/>
  <path class="st20" d="M172.5,64c-.69.58-1.62,1.7-2.5,2.5-1.23,1.12-4.06,2.84-4.87,3.63-.42.41-.26,2.14-1.13,2.67-1.9-.7-2.65,2.55-5,1.21,4.69-2.62,8.38-8.07,13.5-10Z"/>
  <path class="st53" d="M55,258.5c1.76-.39,2.83.29,2,2,2.06.5,2.68-.75,4.24-1.5l-.74,2.5c-4.04.04-4.19-.4-7.5-1.5.41.16,1.29-1.34,2-1.5Z"/>
  <path class="st26" d="M60,235.5l2.44,2.33c-1.25,1.32-1.76,4.07-2.44,5.17-.16.25-1.67,1.27-2,1,1.89-2.68,1.14-5.53,2-8.5Z"/>
  <path class="st63" d="M99,286c-.17.51-.7.93-.89,1.85-.31,1.5.54,5.29-2.11,3.65-.24-.15-1.69-1.25-1.49-1.74.57-.75,1.43-1.26,1.99-2.01.52-.69,1.35-4.07,2.5-1.75Z"/>
  <path class="st28" d="M171.5,251.5c1.68,5.65,3.1,1.68,3.85,1.49,3.21-.84,4.83,2.47,2.16,4.26l1.24,1.25,1.25-2c-1.01,3.51-1.16,6.85-1,10.5-1.09-2.36-1.58-6.1-1.96-8.79-.13-.95,1.14-2.59-.9-3.14-1.91-.52-9.03,4.83-12.62,5.2-1.44.15-8.27-1.08-5.73-2.81,2.29-.68,6.86-1.48,6.21-4.47h.99s.25,1.01.25,1.01h.98c.79-1.6,2.3-1.14,1.27-3.01l4,.5Z"/>
  <path class="st7" d="M189.5,155c-.45-.36-1.09-.62-1.5-1-.43-.4-.67-1.31-1.5-1.5,0-.05-.51-.14-.46-.41l1.45-.83-2.49-2.75,2.5-1.01c.53.25,1.74,6.38,2,7.5Z"/>
  <path class="st85" d="M52,114.5c-2.63-.32-2.88-2.32-4-3.75-1.68-2.13-1.85-2.5-3-4.75,3.06,2.09,4.7,5.85,7,8.5Z"/>
  <path class="st45" d="M102,262c.44,1.36-.8.75-.99,1.35-.79,2.46.54,5.33-.76,7.65-1.65-1.61-.42-4.03-.3-5.8s-1.72-3.44,2.04-3.2Z"/>
  <path class="st7" d="M187,147.5c-1.01-.22-2.32.21-3-1.26s1.71.36,2-1l-1.25-2.24,1.25-1c.9,1.63,2.17,3.77,1,5.5Z"/>
  <path class="st105" d="M116.5,287.5c-.02.08-.72.5-.95.93s-.29,1.28-.55,1.57c-.27.3-1.07.4-1.5.5.62-1.62.53-1.66,1.61-3.64.52-.95.18-2.55,1.38-2.86-.16,1.03.24,2.59,0,3.5Z"/>
  <path class="st87" d="M52,256.5c.25.11.53.58,1,.5-.02.08.31.4.25.73-.09.53-1.3,1.86-.25,2.27-1.21-.4-1.42-.5-2.5-1l-.29-2.02,1.79-.48Z"/>
  <path class="st42" d="M167.5,116.5c1.07.79,2.1,2.02,3,3l-.06,2.27,4.56,7.23v.5s-.1.47-.73.06c-1.12-.71-3.27-3.53-4.53-4.06-.9-.38-.95.79-.74,1.24.35.75,5.4,1.99,4.99,4.25l-1.99-.75c3.55,1.62,2.84,4.92,4.11,7.39.78,1.51,1.16.96,2.27,3.68.99,2.43,3.52,5,.12,6.43l4.5,5c0,.27-3.14.79-3.73.77-.36,0-6.14-1.78-4.27-.02,3.61-.17,2.64,1.73,4.5,3.76l-1,.5c1.59,2.15,4.36,3.06,6.78,1.77-.34-2.26,1.07-4.75,1.22-7.02.83.19,1.07,1.1,1.5,1.5l-1.03,2.22,2.03,1.53c-3.14,1.15.59,2.9,0,3.74-.88.03-1.45.9-2.29,1.01-1.06.14-3.88-1.26-3.71.99,2.48,1.12,5.63,1.36,7,4-2.81-.03-6.48-3.3-9.25-3-1.06.11-1.41,1.35-2.53,1.52-.46.07-3.6.41-3.94.42-.95.03-2.17-.74-3.28-.44l1,1.99-4-.49c-.09,1.05-.19,1.44.89,1.58-.74,3.48-1.74-.36-3.15-.6l-2.74,1.52c.46-3.19-.38-2.01-1.77-2.97-9.13-6.3-11.42-6.29-5.24,4.72l-1.99.49c1.73,1.69,7.15,3.87,4.74,6.76-.85.19-1.2-.29-1.77-.72-.37-.28-5.21-5.74-5.4-6.1-.32-.6-.7-1.15-.55-1.88l1.48-1.04c-1.71-4.5-12.27,2.16-10-4.75l-2.99.75c-1.31.98.75,1.64.49,2.74l-1.99-.5c.18.69-1.26,3.19-1.62,3.42-.22.14-4.11-.26-2.6,2.09.8-.07,1.7.14,2.48,0,1.56-.27.67-1.84,2.23-1.51l.98,4.98c-4.18.38-.31,5-4.97,6.02-1.05-2.57,1.23-4.65.49-7.5l-2.49.5v-1.5c-.86-.21-.3.69-.56.96-.32.34-.89-.47-.94-.46l-1-.75c2.17-1.16,2.8-3.24,4-4.75.85-1.07,2.96-2.98,3.68-4.12.56-.89.92-2.89,1.28-3.18.72-.55,3.23.75,5.03-.7.72-.58,1.99-2.29,3.11-3.13.31-.24.96-.33,1.38-.38.29-.35-.88-.81-1-.99.12-1.01,1.7-1.29,1.9-1.58.04-.06-.24-.57.1-1.42,2.7.49,1.87-3.24,2.23-4.52.28-1.02.93-1.05,1.27-1.48,2.39-3,1.28-2.56,1.06-5.78-.01-.17,1.11-.23,1.34-1.57.26-1.5-.46-4.35.55-5.79.37-.52,1.37-.62,1.53-1.15.43-1.44-1.62-1.79-1.48-3.21l1.99-.75-1.48-.78.07-.63c.57-4.14,4.86-.93,5.82-3.71.72-2.08-1.02-1.54-1.34-2.45-.37-1.08.19-2.62-.17-3.84-.55-1.86-3.78-3.5,1.1-4.85,1.63,1.88,4.17,2.52,5.5,3.5Z"/>
  <path class="st62" d="M99.5,201.5c.58.27,1.3-.49,1,1.51.76-.37,3.75-.04,4.46.27,1.21.51,3.95,3.26,5.01,3.52.81.2,1.64-.42,2.22-.25s1.2,2.51,3.81,1.46l-.5,2.99c2.01.55,2.48-1.41,3.99-1.5-.53,2.85,2.85,3.28,4.87,4.36.54.29.6.87,1.03,1.09,1.6.82,2.86.85,4.6.55-1.19,4.32,1.77,7.49,3.77,11,2.92-1.83,6.45-.14,8.72,2l-.5-3.24,1-.25c-.01,1.66,1.85,1.84,2.54,2.73,1.18,1.52-.3,1.72,3.25,2.23.64,2.84-.14,5.9.26,8.74.28,2.02,1.87,3.62,1.45,5.79-1.7.05-1.03-2.11-3-1.5.9,2.71-1.58,4.79-1.89,6.87-.24,1.59.29,3.47-.33,5.66s-2.41,4.34-2.73,6.76c-.31,2.28.91,6.02.4,7.4-.31.84-1.26.59-1.8.96-.26.18-.09.8-.14.84-.08.07-.33-.04-.5,0,1.55-3.54-1.31-4.46-1.9-6.85-.65-2.69-.75-6.89-1.21-9.27-.23-1.17-2.59-5.17.86-2.39,2.02-1.96,1.15-3.71,1.23-5.72.04-1,.63-1.91.52-2.98-.09-.89-.97-1.67-.9-2.46.13-1.5,2.5-2.25,2.2-4.34-.19-1.34-.79-3.04-2.29-2.49v2.75s-.99.24-.99.24c.2-1.25-1.21-.87-1.73-1.5-.37-.44-.32-1.45-.76-1.79-.53-.41-1.78.7-2.28-.18-.56-2.99-1.32-6.31-2.37-9.15-.39-1.06-1.93-3.39-2.37-4.38-.31-.71-.32-2.34-.99-2.8-2.7,1.23-4.25-3.29-5.82-3.59-1.75-.33-4.13,1.65-5.94-1.61-.34.95-1.92,1.99-2.25,2.49-1.07-2.25-1.48.85-2.49,1,.21-3.68-3.3-.86-4.05.7-.3.62-1.1,3.91-.98,4.45.09.41,1.05.57,1.46,1.15.84,1.2.87,2.97,3.07,2.7-.63,1.01-1.32,2.03-2,3l-1.75-1.49-1.75.99c.67-1.36.18-5.27-1.5-3.99l.48-2.96-2.98-.05,1.03-3.67c-.02-.21-.97-.82-1.04-.83-.34-1.95,1.28-3.26,2.5-4.5,1,2.28,1.48-.83,3-.5l-.75,2.99c.93-1.39,2.61-3.8,1.93-5.37-.11-.25-3.78-3.49-4.04-3.56-.6-.16-2.48.22-3.14.43.04-.38-.48-.84-.5-1-.23-1.72.77-2.3-1.5-3,.3-.14.79-.04,1-.5Z"/>
  <path class="st85" d="M104,163.5s.41.48,1,0l-.45,1.28.98.47-1.52,2.74,1.97-.49c.53,1.9,1.5,4.21,3.03,5.5.94.79,5.91,4.01,6,1,.27.11,1.15.39,1.5.5l1,2,1.49-.5c-1.31,2.4.55,2.44.55,3.22,0,1.61-1.19,2.17-1.45,3.17-.3,1.13.67,2.7-.59,3.88l.99.52c.23,2.17-1.8,6.85,1.01,7.21l-1.51,3.99-.81-4.83.31-2.16c-1.64-.35-1.38,2.03-1.5,3l-1-2-1.99,1,.99-2.25-1.48-.24,1-2.5-1.99,1.49c-.19-1.08,1.02-1.72.98-2.75-.02-.59-.78-1.37-.98-2.25-.01-.04.57.13.49-.74-.09-.99-1.51-1.41-1.7-1.74-.27-.48.42-1.28-.51-2.06-1.23-1.04-2.55.15-3.28,1.04-.14.18-.34.32-.5.5-.8-.8.63-3.11-.99-3.5l-.51,2.5-1.42-.46-3.58,3.95c.06-2.22,3.11-3.81,2.75-6l-4,4.5-.49-1.99-1.26,1.15-4,1.84c.5-1.09,3.44-1.8,2.75-3.49l-6.5,6-.25-1-1.25,1c-.78-1.4,2.3-2.06,1.75-4-2.66.52-2.86,3.46-5.49,3.51l3,2-1,1.48c3.59,1.54-1.12,1-2.66,2.09-.69.49-1.51.9-1.33,1.92,1.61-.19,2.05-2.04,4-1.49l-2,3.49,1.42.06c-.15,2.88,2.26,3.05,4.38,3.92l-.29,2.02c2-.52,3.59,1.71,6,1.01l-1.5,2.49c1.45-1.22,3.24-1.7,5-2.5,2.27.7,1.27,1.28,1.5,3-1.07.09-2.49,2.36-2.73,2.4-.66.11-5.54-2.9-6.77-.9l.75-2.5-3.25,3c.22-1.46,1.44-1.99.97-3.73-.38-1.42-1.32,0-1.73.01-.39,0-1.29-.94-2.25-.29,1.37-1.45.48-1.41-.02-2.99-1.96-.12-1.7,1.89-2.26,2.98-.21.41-.69.46-.72.51l-1-.75,1.5-2-.75-.74-.75.49c-1.23-.83,1.2-3.75-.26-4-.86-.15-1.18.82-1.25,1.49l-.74-1-1.75,1.5c.46-1.05.23-2.49.5-3.5.67-2.52,1.44-2.04,3-3.5.26-.24.79-.35,1-.75l-.98-.96,1.49-2.78-2.5.49.92-2.24-1.42-1.25,1.99-.75-.99-3.25c1.83.29,2.66-.78,3.76-1.99.76,1.18,1.2,1.93,2.75,1.99h.5c-.45.62-1.89,1.76-1.25,2.5l5.26-3.74-1.51-.26c.13-.85,1.37-.94,1.75-1.49.29-.42-.27-.9-.25-1.01.39-2.84.65-3.28,2.99-5.26l1.15.25,1.11,1.51,1.75-1.75-1.49-.49c.76-.51,1.57-1.92,2.24-2.31,1.13-.65,2.35.52,3.25-1.2l-1.2-.7-.29-1.55c.15-.1.13-.8.75-.51l.99,1.01c.57-.51,1.02-1.19,1.76-1.5Z"/>
  <path class="st97" d="M131.5,129c.02.07.65.08.43.42l-.93.32,1.5,1.75-2,.51,1,1.48c-5.45,2.24-.12,5.21,1.75,8.01l.49-1c1.41,2.55,2.28,2.07,4.25,2.75,1.28.44,2.16,1.81,4,1.25l-.5-1.49h3c-.43.51.12,2.16-2,.99v1.52c-1.97-1.15-2.71,1.17-4.5,1.5-.22,1.79,2.18.67.99,2.99l-1.49-1c-.23,3.61-2.56,3.8-4.92,5.59-.36.85,1.02,1.79.85,2.59s-2.21,1.42-.93,3.32c-.22.4-.15,1.88-.5,2.5-1.22,2.14-7.02,7.52-9.5,8.5-1.11-1.3-2.92.09-4.14-.09-.68-.1-1.34-.91-2.13-.91-.9,0-1.09.94-1.22,1-.34.16-1.37-.32-1.5.25,5.22,4.31,15.91,2.2,20-2.75h.5c-1.2,1.51-1.82,3.59-4,4.75l1,.75c-1.25.27-3.41,1.48-4.25,2.5l-.56-1.03-5.42.57-.32-1.46c-1.25-.2-2.76-.22-3.96-.57-.35-.11-1.23-.39-1.5-.5-1.14-.47-2.05-1.26-3-2-.61-.47-1-.94-1.5-1.5,2.39-1.22-.33-.96-.51-1.76-.13-.57,1.04-1.14.93-2.35-.12-1.31-1.3-2.44-1.58-3.39-.71-2.41-.09-5.33,1.16-7.5.16-.02.34.02.5,0,1.66-.23,5.32.23,5-1.5,1.9,2.38.98,2.05,1.21,5.03l3.79.47c.05,1.53.41,3.02.74,4.51l1.26-1.51,1.5.74c-.15-.9-.9-1.4-1.17-2.33-.51-1.78-.66-6.31-2.34-2.41.1-1.55.43-2.59,1-4,.07-.17.41-.32.5-.5l2.06,3.44c.38.24,3.92-.42,4.42-.72.16-.1,2.64-2.54,2.73-2.71.23-.42-.11-2.26.75-3.21.45-.49,1.3-.06,1.54-.65.79-1.96.96-4.13.49-6.17-.73.22-1.18,1.34-1.5,2-2.09-1.64-4.6-2.17-7-3-1.15-2.55.42-.94,1.5-1.74,1.9-1.42.03-2.94-.04-4.51-.09-2,1.6-2.64.04-4.48.28-.83,1.34-.24,1.44-.36.36-.46.81-3,2.57-2.9Z"/>
  <path class="st41" d="M140.51,208.5c.84.21.31-.69.57-.89.17-.13,1.07.8,1.17-.61,2.18,1.04.94,3.93,3.19,3.54.24,4.69,5.91,2.41,9.02,2.39l.05-1.43c1.61-.34,1.44.45,2.25,1.49l.75-2.99c5.4.29,5.35,6.66,7.07,10.68.84,1.95,2.63,5.47,3.72,7.28.45.74,5.25,6.53,4.71,7.04-3.28.09-3.91-4.61-5.29-6.46-.73-.99-2.81-2.11-3.92-3.58-.97-1.28-1.76-2.94-2.3-4.46-3.7.85,1.61,5.53,2.38,7.38.2.48,1.47,4.27-.11,3.61-3.04-2.53-4.27-6.56-5.23-10.28-.45-1.73.47-3.84-1.78-5.21-1.81,2.91-2.94.31-4.36.57-.68.13-5.03,1.6-6.03,1.95-.46.16-.39.96-.64.99-1.48.21-4.49-4.22-5.23.98l-8.02-1.23-.97-4.27c2.92,1.08,3.91-3.73,4.5-6.01l1.92.57c.51.53-.75,3.96,1.06,4.43l-.49-9.5,2,4Z"/>
  <path class="st77" d="M98.5,202c-1.76.8-3.54,1.28-5,2.5l1.5-2.49c-2.4.71-4-1.53-6-1.01l.29-2.02c-2.12-.88-4.54-1.04-4.38-3.92l-1.42-.06,2-3.49c-1.95-.55-2.39,1.31-4,1.49-.17-1.01.65-1.43,1.33-1.92,1.54-1.09,6.26-.55,2.66-2.09l1-1.48-3-2c2.63-.04,2.83-2.99,5.49-3.51.55,1.94-2.53,2.6-1.75,4l1.25-1,.25,1,6.5-6c.69,1.69-2.25,2.4-2.75,3.49l4-1.84,1.26-1.15.49,1.99,4-4.5c.36,2.19-2.69,3.77-2.75,6l3.58-3.95,1.42.46.51-2.5c1.62.38.19,2.7.99,3.5-2.53,2.85-5,5.19-7.67,8.06-.88.94-1.63,4.01-3.83,3.19l3.99-5.01c-1.18-1.96-2.83.98-3.72.75-.23-1.07-1.7-1.4-1.77-1.51-.22-.33,1.4-1.16.99-1.99-.76,1.35-3.94,1.68-4.28,1.95-1.11.9.37,2.52-1.72,2.56l.24,1.02,1.26.49-2.49,4.24,1.43.82-.44.92c.9.31,1.22-.81,1.75-.83s1.19.89,1.93.76c.64-.11,2.69-2.13,3.07-2.92,1.88,1.49-2.29,2.8.25,3.24l-1,2.26,2.99-1.5c-.26,2.2.77,2.7,2.5,3.5-.21.46-.7.36-1,.5Z"/>
  <path class="st77" d="M106.5,181c.73-.9,2.05-2.08,3.28-1.04.93.78.24,1.58.51,2.06.18.33,1.6.75,1.7,1.74.08.87-.5.7-.49.74l-2.25,2.5.25-1.49-1.27.49.28,1.5h-1.5c-.51-1.39.98-3.52,1.02-4.23,0-.14-1.52-.96-1.53-2.26Z"/>
  <path class="st74" d="M193.5,193c-2.07-2.31-.28-3.73-.1-5.36.12-1.1-.79-2.63.1-3.64.74,3.68-.1,5.75,0,9Z"/>
  <path class="st2" d="M100,76c8.8.45,20.46,1.61,29.12,3.12.66.12,3.18.66,3.55.86.58.31.07,1.21.65,1.54,2.01,1.15,5.05-.48,7.2.74l.48,2.25c-1.26.41-2.83,1.16-4,1.5-2.18.64-10.48,2-11.49,2.76-1.28.98.58,1.59.45,2.42l-2.21,2.31c-.13-1.54.4-2.9-1.11-4.02-2.69-.26-5.2,1.29-7.64,1.52-.49.05-1.01,0-1.5,0-2.76-.03-4.85-.49-7.5-1-1.48-.29-3.02-.66-4.5-1,.08-.22.29-.45.5-.5.29-.06.68.06,1,0l-.5-1.99c5.27-.19,1.83-6.74,8.16-4.47l1.34-2.53c-1.53.09-2.34-1.24-3.78-1.48-2.53-.42-7.42,1.26-8.23-2.02Z"/>
  <path class="st92" d="M136.5,88c2.43.9,4.39-1.65,7-.5-1.2,2.51.19,2.93,1,5-3.05-.11-3.96.89-5.99-2-.11,1-.57,3.38-1.25,4.01s-1.7.39-2.25.76c-.12.08-2.01,1.92-2.03,2.07-.11.82.4,1.6.43,2.41.02.75-.62,1.61-.37,2.42.2.61,1.2.81,1.66,1.38,1.17,1.47.35,2.53,2.8,1.95.41-.1.76-.75,1.5-.5l-1,1.5-.4.24,1.67,2.27,1.72-1,1.24,1.52c1.19-.98,2.55-.5,3.44-.7,2.15-.46,4.92-1.72,6.83-2.82l1.98-.13c.12,2.48,3.49,2.29,4.9,3.01,3.43,1.76,6.1,4.42,8.13,7.62-1.33-.98-3.87-1.62-5.5-3.5-.73-.84-1.21-1.88-1.57-2.92-7.25-1.53.16,11.9-5.68,11.88-1.61-.47-3.43-2.09-4.73-3.25-1.64-1.47-1.13-1.52-3.77-3.21-1.21-.78-1.64-2.55-3.75-1.99-.31,1.99,1.52,3.28,2.26,5.01l-1.26,1.48c-.26-.37-1.37-1.2-2-2,1.59.11,1.06-.2.49-1.24-1.05-1.9-1.41-2.96-3.49-3.76-.34-.13-.66-.36-1-.5-.03-.42.56-1.31.46-1.45-.55-.75-3.4-.79-1.97-3.55l-1.49,1,.04-1.75c-1.61-.64-2.99-1.5-4.54-2.25.25-1.15,1.13-1.79-.45-2.22l.45-1.28-1.99.5c-.03-1.19.32-2.33.5-3.5l1.99,1.5c.07-2.48.1-3.24,1.52-5l1.48,1v-1.51c.83.61,1.33-.48,2.78-.46.18-1.27.46-2.64.56-3.9.05-.59-.34-1-.33-1.13,0-.17,0-.33,0-.5Z"/>
  <path class="st14" d="M147.5,93c.35,1.21,1.41.78,2,1,2.98,2.38,2.52,5.65,4.5,8.5l-6.14,4.63-4.86-.13c-.5-.43,4.24-5.52,3.25-6.99-1.41,1.61-2.84,5.85-4.77,6.78-.99.48-2.2-1.18-3.49-.28l1-1.5c-.74-.26-1.09.4-1.5.5-.92-.29.17-1.45-.07-1.9-.11-.2-2.86-2.09-2.87-2.34,1.13-.74.29-1.87.68-2.73.25-.55,1.25-1.12,1.7-1.84s.49-2.11.57-2.19c.04-.04.75.46,1.17.37.62-.14.92-.88,1.33-1.02,2.5-.88,4.85-.98,7.5-.84Z"/>
  <path class="st89" d="M106.5,58c2.17-1.34,2.58-5.28,6.69-4.99,1,.07,6.57,1.32,4.07,3.03-1.82,1.33-3.88-4.39-7.75.21-2.41,2.86.99,2.37,1.05-.19.45-.41,4.49.51,5.3.83,1.35.53,2.14,1.69,3.14,2.11-.27,2.26-2.61,9.86-3.97,11.28-1.89,1.96-5.68.79-8.03.22-.01-.34.51-1.36.5-1.5,1.71-.38,4.58,1.22,5.88-.12.3-.31,3.28-7.34,3.41-7.88.71-2.87-3.14-2.91-5.29-3-.4,1.78,1.61.53,2.29,1.46.97,1.35-1.48,6.27-2.79,7.04h-4c.09-.96-.13-2.07,0-3,.08-.55,1.01-3.06,1.25-3l1.3.81-1.54,3.68c2.65.59,3.34-2.5,4-4.49-1.46-.19-2.93-.55-4.34-.94-1.24-.34-1.34.28-1.16-1.57Z"/>
  <path class="st83" d="M141,84.5c3.57-1.16,6.71-3.92,8.5,1.49h-2c.62,1.74,2.16.5,3.5.51l-1.99,1.49c1.47-.22.72,1.32,1.49,2.25.28.35,1.15.47,1.52.99.35.49,2.75,4.51,2.48,4.76-1.86-.11-3.13-1.29-5-2-.59-.22-1.65.21-2-1-.55-.86-2.05-.47-3-.5-.81-2.07-2.2-2.48-1-5-2.61-1.16-4.57,1.4-7,.5.01-.6.42-1.36.5-2,1.17-.34,2.74-1.09,4-1.5Z"/>
  <path class="st10" d="M138,106.5c1.29-.9,2.5.75,3.49.28,1.93-.93,3.36-5.17,4.77-6.78.99,1.47-3.75,6.57-3.25,6.99l4.86.13,6.14-4.63c.46.66,2.32,1.47,2,3l-2.19-.97c-.63.11-1.05,1.33-1.3,1.48-1.91,1.1-4.68,2.36-6.83,2.82-.9.19-2.25-.28-3.44.7l-1.24-1.52-1.72,1-1.67-2.27.4-.24Z"/>
  <path class="st34" d="M107,70.5c-.8-.19-1.7-.19-2.49-.52l.99-3.48-2.02-.23c-1.32-.83.91-5.93,2.52-4.77l-1,2.99,2-1c-.13.93.08,2.04,0,3h4c-1.38.81-2.41.48-4,.5-.28.73.48,1.6.5,2,0,.14-.51,1.16-.5,1.5Z"/>
  <path class="st99" d="M175,129l-4.56-7.23.06-2.27c2.15,2.34,1.06,2.03,1.82,3.5.96,1.85,4.15,3.58,2.68,6Z"/>
  <path class="st68" d="M147.02,78.97l1.98.03c.14,1.47-.72,2.58-1.76,3.5-.88-1.38-2.09-1.88-2.26-3.74-.15-1.62,1.19-.06,1.49-.3.21-.18-.36-1.16.52-.96l.03,1.47Z"/>
  <path class="st61" d="M78.73,104.3c.18.18.51.24.77.21l-.89.56c1.11,2.89-1.05,2.68-2.59,4.69l1.49.76-1.87,2.73c1.26,1.03.29,5.46-1.67,5.03-.97-.21-3.1-2.66-4.74-2.76.48-2.17-.92-3.46-1.21-5.51l1.5-.74c-4.34-1.54-2.11-6.64-6.99-8.01l2-.25-1.48-2.2c1.66-1.06,2.79-3.79,5-3.1,1.14.36,9.43,7.28,10.72,8.6Z"/>
  <path class="st85" d="M93,96.5c-.1,2.84-1.03,2.09-1.7,3.49-.19.41.1,1.18-.36,2.16-1.06,2.24-3.75,3.33-4.94,5.61,1.53.96,2-2.52,3.24-2.25,2.5.54-1.17,3.49-1.74,3.99l3-1.49-.25,3c.79-1.38,1.77-3.52,2.25-5-.58,2.06,2.94,2.27,2,4,1.4-.35,2.19-.5,2.74,1,.26-.47,1.1-.37,1.26-.5l1.25,1,1.75-.99-1.49,2.49,2.5-1c-.47.8-1.17,1.7-.5,2.5-.76.77-1.24,1.72-2,2.5s-2.25,1.29-3,3l-2,1c1.01-1.92-.31-1.3-.47-1.81-.41-1.3,1.06-3.03.97-3.17-.1-.15-1.95-.21-1.5-1.51,1.15.66,5.32-2.15,4.49-3l-2.8,1.02-.92-.96-1.28.44.51-1.2c-1.86-.35-.1-2.55-2.01-2.3l-.51,5.5c.31.08.78-.08,1,0l-6.12,8.15c.43,2.57-.41,2.98-1.38,4.85l-2,.25.25-1.75-3.26,3.5c.8-3.11,2.53-6.95,3.5-10l.74,1,1.51-1.49c.4-.14-.17,1.82,1.43.43.24-.21,3.78-4.86,3.81-5.18.02-.22-.85-1.11-1.24-.25l-1.25,1-.25-2.5c-.75.18-2.84,4.88-3.75,3.99l1-1.74-1,.25c.6-.98.02-1.69,0-2.01-.18-2.31-.03-2.82,1-5l-1.49,1c.25-.72,1.49-2.88,2-3.5.39-.48,1.61-1.01,2-1.75l-1-.25,1.01-1.75-1.01-.5c.19-.53,3.27-2.81,4-3.25.51-.31,1.5-.36,2-1Z"/>
  <path class="st52" d="M101.5,89c1.48.34,3.02.71,4.5,1-.23.84-3.4.98-4.5,1-1.36.03-2.25-1.1-4.17,0-.59.34.2,1.47-1.83.51.83,1.63-.83,1.46-1.35,2.11-.1.13.2.69.05.88-.86,1.07-1.18.19-1.2,1.51,0,.17,0,.33,0,.5-.5.64-1.49.69-2,1,.08-1.75-.25-.81-.99-.24-.42.33-2.82,2.44-3.01,2.24-.2-1.26,1.26-1.64,1.72-2.5.25-.47-.24-.92-.22-1,.08-.38,0-.48,0-.5.57-2.07,1.02-3.17,3-4.25-2.76-.55,2.73-1.73-.5-2.25-.54-.38,3.23-1.28.5-2.5,3.61.42,6.55,1.71,10,2.5Z"/>
  <path class="st67" d="M84.5,112.5c.03.32.6,1.03,0,2.01l1-.25-1,1.74c.91.89,3-3.82,3.75-3.99l.25,2.5,1.25-1c.39-.86,1.26.03,1.24.25-.02.32-3.56,4.97-3.81,5.18-1.6,1.39-1.04-.58-1.43-.43l-1.51,1.49-.74-1c.21-.65-1.23-2.61.5-2.75-1.74-1.03.28-1.51-.5-2.75.28-.26.44-.87,1-1Z"/>
  <path class="st75" d="M91.5,86.5c2.73,1.21-1.04,2.12-.5,2.5,3.23.52-2.26,1.7.5,2.25-1.98,1.08-2.43,2.18-3,4.25-2.64.49-1.35-2.47,0-2.75l-1.46-.27c-.73-2.07,1.55-6.46,3.7-6.42.42,0,.67.43.76.44Z"/>
  <path class="st53" d="M65,119.5c1.37-.04,2.68-.49,4-.25-3.21,1.32-1.49,4.3-4.2,4.78l-3.3-4.53c1.01.13,2.43.03,3.5,0Z"/>
  <path class="st64" d="M88.5,96c-.02.09.48.53.22,1-.46.86-1.92,1.24-1.72,2.5.18.2,2.58-1.91,3.01-2.24.74-.57,1.07-1.51.99.24-.73.44-3.81,2.72-4,3.25l1.01.5-1.01,1.75,1,.25c-.39.74-1.61,1.27-2,1.75-1.08-1.58-1.11-2.37-.04-3.96l-.96-.28c2.32-1.36.74-4.17,3.5-4.75Z"/>
  <path class="st28" d="M175.5,248.5c-.55-.1-1-.27-1.5-.5l.49,4.5c-1.22.25-1.43-.95-2-1.5,2.41.29-.1-2.67.05-2.94l1.02-.97,1.93,1.41Z"/>
  <path class="st0" d="M168.5,288.5v1s-1.5,0-1.5,0c-1.29-2.18-2.09-4.39-1.99-7,2.47.77,2.26,3.69,3.49,6Z"/>
  <path class="st96" d="M179.5,285c-1.29-1.41-2.54-3.63-4.5-3.49l1,1.25c-1.32.48-.93.61-1,1.75h-.5c.17-1.8-2.47-4.78.23-5.49,1.84,2.11,5.25,2.48,4.77,5.99Z"/>
  <path class="st24" d="M82.5,175.5l-.05-1.82-.7-1.17c-.87,1.21-1.52.84-2.75.49-.15-.18,1.45-2.52,2.01-2.76.59-.25,2.26.62,2.48-.49.31-1.58-2.66-.75-2.99-1.25l.02-1.46,2.98-1.78-2-1c.49-.66,1.6-.91,2.06-1.49.39-.49-.15-1.21-.06-1.26.39-.2,2.46,1.25,3.25-.5l.54,1.01-.79,1.47,2.5-.5c-.01.33.31.92,0,1.5l2.25-1.99,1.22,2.28,1.53-.29,1,1-2,1.99c2.87-.04,5.19-1.5,7.5-3l.29,1.55,1.2.7c-.89,1.71-2.12.55-3.25,1.2-.67.39-1.48,1.79-2.24,2.31l1.49.49-1.75,1.75-1.11-1.51-1.15-.25c-2.34,1.99-2.6,2.42-2.99,5.26-1.76.83-2.88,2.45-4,4h-.5l.49-3.5-1.74,1.99c-.84-.4-.24-1.07-.43-1.39-.04-.08-1.55-.11-.82-1.09.05-.07.69-.03.94-.31,1.45-1.61,3.66-3.02,3.56-5.2-.9-.97-5.44,4.51-6,5Z"/>
  <path class="st86" d="M80,129l3.26-3.5-.25,1.75,2-.25c-.28.54-1.16,2.29-1,2.5l1.49-1c-1.2,2.47-.13,3.84-1.99,6.28-.67.87-2.12.43-1.5,2.72l2.49-2,.75,1.99c1.24-.74.52-2.22.76-3,.19.37.97,1.26,1,1.5.08.77-.75,1.95-.83,2.85-.16,1.77,1.06,3.01-1.17,4.41l1.49.49-3.5,2,4,2.5c0,.46-3.03,1.81,0,2.25-.91.65-2.78,2.54-4.32,3.43-.62.36-1.72,1.06-2.18.07.71-.49,1.25-2.06,2.5-2.25-.8-1.1-1.24-1.2-2.49-.75l1-2.99h-2.5c-.9-.78-1.77-3.69-1.45-4.69.23-.72,1.25-.68,1.39-.87.12-.16-.99-2.36-.84-3.14.2-1.03,2.11-1.26,2.39-2.3l-1.99-.25,1.99-3c-.13-.51-1.34.6-1.5.75.28-.82.4-1.64.5-2.5.15-1.23.18-1.75.5-3Z"/>
  <path class="st17" d="M89,163c.02-.47.35-1.03.5-1.49l-2-.51,1.5-2.49-2.49.25,1.98-.79c-.8-2,.2-3.68,1.02-5.46l-4,1.25,7.25-4.75c2.3.3-1.25,1.4-.25,2.5l2.49-2c-.61,1.08-.06,2.49-.29,3.52-.26,1.16-2.36,2.01-.2,3.98-.14.09-.33,1.15-.76,1.47-.51.39-4.65,2.06-3.73,3.03.52,0,1.01-.36,1.54-.22,3.36.9.18,2.17,3.2,3.05,1.61-.57,3.17-3.03,4.75-3.33,1.3-.24,3.11.17,4.5,0v2.5c-.73.31-1.19.98-1.76,1.5l-.99-1.01c-.62-.28-.6.42-.75.51-2.31,1.49-4.63,2.96-7.5,3l2-1.99-1-1-1.53.29-1.22-2.28-2.25,1.99c.31-.58-.01-1.17,0-1.5Z"/>
  <path class="st44" d="M82.5,175.5c.55-.49,5.1-5.97,6-5,.11,2.17-2.11,3.58-3.56,5.2-.25.28-.88.24-.94.31-.73.98.77,1.01.82,1.09.18.32-.41.98.43,1.39l1.74-1.99-.49,3.5c-1.55-.06-1.99-.81-2.75-1.99-1.1,1.21-1.93,2.28-3.76,1.99l.99,3.25-1.99.75,1.42,1.25-.92,2.24,2.5-.49-1.49,2.78.98.96c-.21.4-.74.51-1,.75l-.5-1.5-2.37-.13c-1.51-2.45-.56-2.76.87-4.86-2.6-.72-2.62-2.12-.5-3.5l-1.05-.31.54-2.2-1.49.5-.5-2.5,3.25-.99c.9.01-.27,2.04.99,1.48.48-.21,2.25-1.55,2.76-1.99Z"/>
  <path class="st84" d="M88.5,136c.06.48.72,1.26.51,2l2.49-1.5c-.72.97.36,2,.34,2.25-.04.69-1.68,1.14-1.34,2.25l2.49-1c.1.17-.29,3.67-.5,4-.4.64-2.6,2.22-3.5,1.5l.5,2c-1.12.78-1.33,1.15-1.5,2.5-.3.12-.76.33-1,.5-3.04-.44-.01-1.79,0-2.25l-4-2.5,3.5-2-1.49-.49c2.23-1.39,1.01-2.64,1.17-4.41.08-.9.91-2.07.83-2.85l1.26-.39.24.39Z"/>
  <path class="st45" d="M79,148h2.5s-1,3-1,3c1.25-.44,1.69-.34,2.49.75-1.24.19-1.79,1.76-2.5,2.25-.38.26-3.3,1.67-3.5,1.5.17-2.24,3.52-1.47,2.75-3.49l-2.75,1c.74-1.69.39-3.83,2-5Z"/>
  <path class="st45" d="M92.5,147.5c-1.15,2.7-2.75,1.82-4.5,2.5.17-1.35.38-1.72,1.5-2.5,2.21-1.54,1.65-.11,3,0Z"/>
  <path class="st39" d="M83.5,212c.03-.32-1.17-1.24.74-1.5l.76,2.5c.78.79,6.3-2.57,7.49-3.01l-.99-.74c2.5-4.12,6.56-.71,4.86,3.12l-9.36,5.12c1.61.68,1.84,2,3.99,1.01l.75,2,1.76-1.75c-3.35-.85,3.08-3.77,3.75-3.74.31.01,1.02,1.09.74,1.47-2.72.38.22,2.91-2.48,4.27l1.49.76v.73c-2.89,2.33-3.33,4.79.5,1.26l-1.5,2.49,4.5-.99c-.19.31-.3.75-.5,1-.23.3-.54.59-.51,1l-.74-.99c-1.5.95-1.02,2.46-1.25,4l2.25-1.5.49,1,1.25-2.5c.37.17.64.29,1,.5l-2.49,7,3.25-3c.98,2,3.07.51,4.25-1,.21-.26.3-.71.5-1,1.64,1.06-1.58,3.35-1,4l3-2s.59.33.28.95c-.53,1.07-2.35,1.79-2.78,3.04.84-.09,1.68.6,2.49.27,1.88-.76,1.54-4.65,4.02-3.27l-.5,1.5h1.47s.03-2.99.03-2.99l1.41-.07c.31-2.01,1.53-4.51,3.09-5.94-.91,2.55-1.89,5.25-3.05,7.69-.76,1.59-2.32,2.38-1.94,4.31l1.99-1.5c.24.26-.48,6.21-.74,7-.44,1.32-1.62,2.7-2.11,4.4s-.23,3.66-.65,5.1c-.05.16-.36.34-.5.5,0-.33,0-.67,0-1-.27.14-1.9.04-2,0-.39-.16-.38-1.13-.75-1l-1.26,1.99-.55-.94-.94.44.99-3-1.49.5v-3.5s-2.5,2.5-2.5,2.5v-2.5s-2.5,1.5-2.5,1.5v-2.5s-1.02,1.5-1.02,1.5h-.99s.5-1.49.5-1.49l-2.49.5.99-2.49-2.99,1c-.03-1.56-.84-1.99-2-2.75l.99-1.24-2.04-.75c.13-2.06-.85-1.9-1.96-3.25-.33-.4.17-1.82-1.5-1l.27-1.53-1.28-.48c0-.88,1.33-.82,1.5-.99l2.5-.5-1.02,1.75.97.97-.45,1.27,2-.49c-1.41,3.35,1.52,3.06,1.51,6l2.49-1v2s1.5-.51,1.5-.51v1.51c1.99-1.02,2.08-1.99,1.5-4.01l-.99.51c1.21-2.47-.98-2.25-2.03-4.23-.69-1.31-.59-2.73-1.13-3.87-.77-1.65-2.52-5.6-4.35-5.4l1-1.49c-.57-.55-5.68,3.75-3.71,4h1.71c.17.14-.77,2.19-1,2.49h-1.5s.31-1.51.31-1.51l-1.8-.99c-.11-.48-.34-.64-.5-1.5,2.16-1.65-.47-1.93-1.33-3.16-.25-.36-.66-1.49-1.17-2.34-.43-1.05,1.06-.96,1-1.24-.22-1.14-1.84-1.7-2.24-2.29-.22-.33-.03-2.09-.77-2.71l2.51-1.52-1.5-.75c-.11-.08.49-.79.51-1Z"/>
  <path class="st84" d="M128.5,221c.44.99,1.98,3.32,2.37,4.38,1.05,2.84,1.8,6.16,2.37,9.15.5.88,1.75-.23,2.28.18.44.34.39,1.35.76,1.79.52.62,1.93.25,1.73,1.5l.99-.24v-2.75c1.5-.55,2.1,1.15,2.29,2.49.3,2.1-2.07,2.84-2.2,4.34-.07.8.82,1.57.9,2.46.11,1.08-.48,1.99-.52,2.98-.08,2,.79,3.76-1.23,5.72-3.44-2.78-1.08,1.21-.86,2.39.46,2.38.56,6.58,1.21,9.27.58,2.4,3.44,3.31,1.9,6.85l-1.99-.75c2.13-.8-1.18-4.74-2.16-5.59-1.27-1.11-3.79-2-5.35-3.4-.83-.75-4.19-4.85-4.41-5.63-.1-.33-.08-4.82.01-5.26.33-1.63,2.22-3.97,2.41-5.87.7-.67.93.05,1.01.75.16,1.49-.49,2.97-.04,4.49.22.75-.27.9,1.02.75-.72-3.16,2.31-5.99,2.42-8.87.04-1.03-1.47-.82-1.8-2.47-.35-1.78.33-3.54.11-4.72-.63-3.41-2.52-8.12-3.53-11.43-.28-.93.03-1.65.3-2.51Z"/>
  <path class="st66" d="M115,220.5c-.18-3.41,1.75-2.28,2.48-2.74.59-.37.66-1.63,1.51-1.76l.3,1.55c1.78,1.42,3.03-1.53,4.23.17.86,1.21.37,2.88.47,4.28,1.29.28.75-.33,1.29-1.02l1.4.08c.83.3,1.18,3.8,1.17,4.81,0,.71-.77,1.13-.76,1.8.01.89.91,1.88.86,3.51-.03,1-1.34,6.7-1.68,7.86-.73,2.47-2.39,4.47-2.78,6.97h-1c.37-2.57,2.49-4.56,1.49-7.5l-1,1.99c-.67.17-.54-2.06-1.25-.5s-.49,3.78-2,5c-.62-.41.2-1.52-.75-2-.15-.08-.72.18-.91-.07-.09-.11-.92-2.55-.92-2.69,0-.46,1.09-1.17,1.19-2.05.63-5.59,1.47-6.97,3.79-12.06.11-.25.85-.09.85-.13v-7c-3.56.63-4.04,4.43-5.75,7-1.74-2.82.82-3.97,2.25-5.99-1.29-.4-1.46-.32-2.49.49l-.25-1.5c-.38.66-1.35,1.05-1.75,1.5Z"/>
  <path class="st18" d="M115,220.5c.4-.45,1.37-.84,1.75-1.5l.25,1.5c1.03-.82,1.21-.89,2.49-.49-1.43,2.03-3.99,3.17-2.25,5.99,1.71-2.57,2.19-6.37,5.75-7v7s-.73-.12-.85.13c-2.32,5.09-3.16,6.48-3.79,12.06-.1.88-1.19,1.59-1.19,2.05,0,.14.83,2.58.92,2.69.19.25.76,0,.91.07-.69,4.07-3.67,6.54-5,10.25l-1-1.25c.42-1.45.15-3.41.65-5.1s1.67-3.08,2.11-4.4c.26-.79.98-6.74.74-7l-1.99,1.5c-.38-1.93,1.18-2.72,1.94-4.31,1.16-2.44,2.15-5.14,3.05-7.69-1.55,1.42-2.78,3.92-3.09,5.94l-1.41.07-.03,2.98h-1.47s.5-1.48.5-1.48c-2.47-1.39-2.14,2.51-4.02,3.27-.81.33-1.65-.36-2.49-.27.44-1.25,2.26-1.97,2.78-3.04.3-.62-.3-.91-.28-.95.92-2.2,2.35-4.29,3.26-6.49.74-1.79-.17-2.38,1.74-4.51Z"/>
  <path class="st50" d="M119,243c.95.48.13,1.59.75,2,1.51-1.22,1.31-3.49,2-5s.58.67,1.25.5l1-1.99c1,2.94-1.12,4.93-1.49,7.49h1s.42.23.42.23c-.33,1.66.21,3.28.1,5.04s-.84,2.69-1.02,3.73h-2c.34.78-.45,1.63-.5,2-1.46.84-1.52.63-2,2-.82-1.76-1.34-2.27-3.44-2.06l-.56-2.94-1.99,2.5c-.19-1.37-.03-2.82,0-4,.14-.16.45-.34.5-.5l1,1.25c1.33-3.71,4.31-6.19,5-10.25Z"/>
  <path class="st64" d="M110.5,225.5c-2.2.27-2.23-1.49-3.07-2.7-.41-.58-1.37-.74-1.46-1.15-.12-.54.69-3.83.98-4.45.75-1.57,4.26-4.38,4.05-.7,1.01-.15,1.42-3.25,2.49-1-1.08,1.63,1,4.32-2,5.75l.95.9c-.1,1.57-1.42,2.49-1.95,3.35Z"/>
  <path class="st85" d="M101,216.5c.06.02,1.01.63,1.04.83l-1.03,3.67,2.98.05-.48,2.96c1.68-1.28,2.16,2.63,1.5,3.99l1.75-.99,1.75,1.49c-.21.29-.3.7-.5,1s-.29.74-.5,1c-1.6.55-1.82-1.26-2.08-1.4-.22-.12-1.01.54-1.44.2-.59-.47.19-.8-1.48-1.8-.36-.21-.63-.33-1-.5-.53-.25-1.03-.65-1.5-1,.2-.25.31-.69.5-1,.35-.55,1.61-1.93,1.5-2.74-.24-1.88-2.33,1.58-3.5.23l.38-.92-.88-.33c2.58-1.45.13-2.52.72-3.76.18-.56,1.98-1.07,2.28-.99Z"/>
  <path class="st36" d="M110,276c2.69.38.48,1.27.5,2.26.01.68.52,1.52.43,1.95-.13.56-1.23.78-1.63,1.34-.98,1.42-2.04,3.73-1.3,5.45l-1.49-.5c-.43,1.4.75,2.5,1,3.5.82,3.39-1.45,3.26-2.39,4.63-.33.48-.01,1.2-.11,1.37-.21.35-1.64,2.64-2.26,1.51-.8-1.67-.06-3.1.26-4.51v3.5c1.83-.81,1.27-3.01,1.73-4.52.39-1.29,2-2.38,1.27-4.48-.58.2-1.15,1-1.49,1.5l-1-1c.21-.47.06-1.13.75-1.5l.74.99c.55-1.5.99-3.07,2.52-3.76v-.99s-1.01-.49-1.01-.49c2.05-1.12,1.28-3.09,1.95-4.51.41-.86,1.29-1.32,1.55-1.74Z"/>
  <path class="st87" d="M87,228.5l1.8.99-.31,1.51h1.5c-.2.27-.29.8-.5,1-.17.17-1.5.11-1.5.99l1.28.48-.27,1.53c1.66-.82,1.16.59,1.5,1l-.5,1c-.04-.14-.43-.32-.5-.5-.09-.23.07-.69,0-1-.07-.07-.83.36-1,.5-.87-1.89-1.99-4.23-.98-6.22l-1.04-.59c-.01-.29.54-.62.52-.69Z"/>
  <path class="st36" d="M110.5,275c-.64-2.36-.75-.97-2.5-1.25.92-1.21,2.06-1.82,3.5-2.25-.34,1.88.21,1.57-1,3.5Z"/>
  <path class="st25" d="M81,200.5l.75-.49.75.74-1.5,2,1,.75c-.88,1.57.29.32.5,2-1.26.34-.42,1.8-.52,2.19-.09.34-2.6.53.42,1.9-.2,1.23-.74,2.25,1.1,2.41-.02.21-.61.92-.51,1l1.5.75-2.51,1.52c.74.62.55,2.38.77,2.71.4.59,2.02,1.15,2.24,2.29.05.28-1.43.19-1,1.24-.93-1.54-.27-2.39-2.5-2.5-.2.14-.93,4.24-.86,4.68.13.78,1.56,1.98,1.76,3.2.13.83-.42,1.45-.41,1.62l-1,.5c-.08-.59-.3-.98-.5-1.5-.17-.44-.36-.69-.5-1-.3-.66-1.05-1.12-1.36-1.88-1.48-3.68.89-4.48.84-7.45-.02-1.2-.95-1.7-.97-2.42-.02-.79.85-1.49.83-2-.04-.84-2.55-5.2-4.33-4.25l-2.5,5.28-1,7.23h-2.5s-.5-3.5-.5-3.5c.97-2.61,1.15-5.58,1.75-7.47.23-.72,4.15-5.65,4.75-7.03l2.23-.03.52,1.02,1.76-2.99.74.99.75-1.5Z"/>
  <path class="st77" d="M82,228.5c.08,1.02,2.01,2.16,1.47,3.69-.65.87-1.59.75-2.42,1.61-1.07,1.11-1.04,2.84-1.65,3.85-.47.78-1.4,1-1.83,1.67-1.95,3.03-2.81,7.58-7.33,4.7-1.18,1.42-1.85,3.42-3.49,4.47-2.81,1.8-1.64-.18-3.64,2.84s-5.7,3.9-8.11,6.16c-.41.39-.71,0,0,1-.71.16-1.59,1.66-2,1.5-1.05-.41.17-1.74.25-2.27.05-.33-.27-.65-.25-.73.03-.14.46-.34.5-.5,2.49-.43,5.49-2.63,6-5,.33-.18.68-.31,1-.5,2.01-1.2,5.39-4.85,7.32-6.43.91-.74,5.32-2.68,5.58-3.17.35-.64-.15-1.64.21-2.3.08-.16,2.3-1.35,2.84-1.91.79-.79,1.24-1.82,2.05-2.7,2.06-2.22,2.61-.22,2.5-4.5,0-.33.04-.69,0-1l1-.5Z"/>
  <path class="st101" d="M81,229c.04.31,0,.67,0,1-2.61,1.01-2.07,2.17-2.5,4.5-.81.88-1.27,1.9-2.05,2.7-.55.55-2.76,1.75-2.84,1.91-.35.66.14,1.66-.21,2.3-.27.49-4.67,2.42-5.58,3.17-1.93,1.58-5.31,5.23-7.32,6.43.09-4.73.84-3.44,4.01-4.74s1.74-3.14,2.26-4.29c.26-.58,4.4-3.31,5.25-4.7.73-1.2.54-2.82,1.72-3.82l4.27.05c.47-1.5-1.21-.56-1.02-1.75.18-1.1.8-1.22,1.52-1.75,1.22-.9,1.79-.32,2-2.5.2.52.42.91.5,1.5Z"/>
  <path class="st101" d="M80,226.5c-1.54.23-1.21.02-1.75-.99-2.74-5.16-.36-4.19-.73-8.27-.08-.88-.96-3.44-1.81-3.71l-1.46.46-2.45,8.05c-1.41,1.14-4.69.26-4.3-2.05.42-1.44.72-1.75,1-2.5l.5,3.5h2.5s1-7.23,1-7.23l2.5-5.28c1.79-.94,4.3,3.41,4.33,4.25.02.51-.85,1.22-.83,2,.02.71.95,1.22.97,2.42.05,2.97-2.32,3.77-.84,7.45.31.77,1.06,1.22,1.36,1.88Z"/>
  <path class="st26" d="M67.5,220c-.39,2.31,2.89,3.19,4.3,2.05l2.45-8.05,1.46-.46c.85.27,1.73,2.82,1.81,3.71.37,4.07-2,3.1.73,8.27.54,1.01.21,1.22,1.75.99.14.31.33.56.5,1-.21,2.18-.78,1.6-2,2.5-1.51-2.21.08-7.8-4.23-7-1.07.2-1.39,1.18-2.12,1.4-1.26.38-2.99-.04-4.33.13-1.55-2.11-.89-2.59-.32-4.53Z"/>
  <path class="st87" d="M82,228.5c-.01-.17.54-.79.41-1.62-.2-1.22-1.63-2.42-1.76-3.2-.07-.44.66-4.55.86-4.68,2.22.11,1.57.96,2.5,2.5.51.85.92,1.98,1.17,2.34.86,1.23,3.49,1.51,1.33,3.16-.28-1.53-.66-1.32-2.5-1.5.86,3.04.59,7.23-.62,10.14-.43,1.04-6.31,6.73-7.11,8.38-.48,1-.35,2.41-.78,3.48-.47.26-.88.61-1.25,1l-.25-1.5c-2.82.19-4.21,3.41-5.47,5.83-.41.79-.01,1.58-.29,2.14-.98,2.01-3.4,2.31-4.99,3.52l-.24-1.49c-1.11-.33-1.52,1.26-2.24,1.33-.91.1-2.03-1.21-2.99-1.28-.77-.06-1.85.66-2.77.44,2.41-2.26,6.18-3.25,8.11-6.16s.83-1.04,3.64-2.84c1.64-1.05,2.31-3.05,3.49-4.47,4.51,2.88,5.38-1.67,7.33-4.7.43-.67,1.36-.89,1.83-1.67.6-1.01.58-2.74,1.65-3.85.83-.86,1.77-.74,2.42-1.61.54-1.53-1.39-2.67-1.47-3.69Z"/>
  <path class="st51" d="M75.5,247.5c.43-1.07.29-2.48.78-3.48.8-1.65,6.68-7.34,7.11-8.38,1.21-2.91,1.47-7.09.62-10.14,1.84.18,2.22-.04,2.5,1.5.16.86.39,1.02.5,1.5.02.07-.54.4-.52.69l1.04.59c-1.01,1.99.11,4.33.98,6.22-3.69,3.23-9.08,9.29-13,11.5Z"/>
  <path class="st103" d="M55.5,250c.55-.3,2.21-1.21,2,.24-.53,1.35-2.77,1.64-3.27,2.26-.13.16-.59,3.43-.73,3.99-.04.16-.47.36-.5.5-.47.08-.75-.39-1-.5-.7-.31-1.28-.52-2-.75,1.79-2.06,2.98-4.38,5.5-5.75Z"/>
  <path class="st21" d="M104.5,289c.34-.5.92-1.3,1.49-1.5.73,2.09-.87,3.18-1.27,4.48-.46,1.51.11,3.71-1.72,4.52v-3.5c.34-1.53.59-2.67,1.5-4Z"/>
  <path class="st9" d="M143.5,120l1.26-1.48c-.74-1.73-2.57-3.02-2.26-5.01,2.11-.56,2.53,1.22,3.75,1.99,2.63,1.69,2.12,1.74,3.77,3.21,1.3,1.16,3.12,2.79,4.73,3.25,5.84.02-1.57-13.41,5.68-11.88.36,1.04.84,2.08,1.57,2.92-4.88,1.35-1.65,2.99-1.1,4.85.36,1.22-.2,2.76.17,3.84.31.91,2.06.37,1.34,2.45-.97,2.78-5.25-.43-5.82,3.71l-.07.63,1.48.78-1.99.75c-.15,1.41,1.9,1.77,1.48,3.21-.16.53-1.16.63-1.53,1.15-1.02,1.44-.3,4.28-.55,5.79-.23,1.34-1.35,1.4-1.34,1.57.22,3.22,1.33,2.78-1.06,5.78-1.73-3.59,3.08-10.47-2.2-11.52-.6,1.6-2.99.75-1.8,3.02-.5-.17-1.62.64-2,1h-.5c-.71-1.08-.19-2.68,0-4,.13-.92.9-2.64.81-3.27s-1.67-1.56-2.18-2.61c-.22-.45-1.49-5.4-1.52-5.94-.07-1.42,1.6-1.74-.12-4.18Z"/>
  <path class="st19" d="M132.5,160.5c.16-.3,1.61-2.47,1.73-2.57.69-.61,1.68.39,2.27-.68l-.99-1.75,1.25-.49,1.97,3.29c2.03-.21,3.84-.47,5.29-2.05.15-.16,2.43-3.26,2.52-3.46,1.44-3.19-.69-6.14-1.04-9.29.95.62,1.64,2.82,1.87,3.87.38,1.77.86,4.52.12,6.12,3.83-1.32.86-5.37.5-7.99l1.5,2.99c.52.08.85-1.51.99-2,2.57-.13-.44,5.61-1,7-.34.84-.06,1.36-.1,1.42-.2.3-1.78.58-1.9,1.58-.79-1.2-.07-2.28-.99-2.5.12,2.26-1.97,2.84-3.27,4-.45.41-.56,1.11-.84,1.35-.19.16-1.06-.42-1.39.4l3,1.25c-1.8,1.46-4.31.15-5.03.7-.37.28-.72,2.29-1.28,3.18-.72,1.14-2.83,3.05-3.68,4.12h-.5c.33-.4.89-.99.78-1.52l-2.28-4.48c.35-.62.28-2.1.5-2.5Z"/>
  <path class="st96" d="M153,147.5c-.34.43-.99.46-1.27,1.48-.36,1.28.48,5.01-2.23,4.52.56-1.39,3.57-7.13,1-7,.41-1.39,1.31-4.95.94-6.19l-.42-.57c-1.35.61-1.88-.69-2.02-.74-1.19-2.27,1.2-1.43,1.8-3.02,5.28,1.05.47,7.93,2.2,11.52Z"/>
  <path class="st57" d="M147.5,156.5c.12.18,1.29.64,1,.99-.42.04-1.07.14-1.38.38-1.12.84-2.4,2.55-3.11,3.13l-3-1.25c.32-.82,1.2-.24,1.39-.4.28-.24.39-.94.84-1.35,1.3-1.16,3.39-1.74,3.27-4,.93.21.21,1.3.99,2.5Z"/>
  <path class="st104" d="M82,203.5s.51-.1.72-.51c.56-1.09.31-3.1,2.26-2.98.5,1.58,1.39,1.54.02,2.99.96-.65,1.86.3,2.25.29.41,0,1.34-1.43,1.73-.01.47,1.74-.75,2.27-.97,3.73l3.25-3-.75,2.5c1.23-2,6.11,1.01,6.77.9.23-.04,1.65-2.31,2.73-2.4.02.16.54.62.5,1-.48.16-2.41,1.07-2,2l3.73-.46,1.27,2.96,2-.5c-.33.9-1.35,1.33-2,2-1.22,1.24-2.84,2.55-2.5,4.5-.3-.07-2.1.44-2.28.99-.59,1.24,1.86,2.31-.72,3.76l.88.33-.38.92c1.17,1.35,3.27-2.11,3.5-.23.1.81-1.16,2.19-1.5,2.74l-4.5.99,1.5-2.49c-3.83,3.53-3.39,1.07-.5-1.26v-.73s-1.48-.76-1.48-.76c2.7-1.36-.24-3.89,2.48-4.27.28-.38-.43-1.46-.74-1.47-.68-.03-7.1,2.88-3.75,3.74l-1.76,1.75-.75-2c-2.15,1-2.38-.33-3.99-1.01l9.36-5.12c1.7-3.82-2.37-7.24-4.86-3.12l.99.74c-1.19.44-6.71,3.8-7.49,3.01l-.76-2.5c-1.91.26-.72,1.18-.74,1.5-1.84-.16-1.3-1.18-1.1-2.41-3.02-1.38-.5-1.57-.42-1.9.1-.39-.74-1.84.52-2.19.11.92-.37,2.64.49,3.27,3.87.43,2.52-4.09-.49-3.27-.21-1.68-1.38-.43-.5-2Z"/>
  <path class="st85" d="M100.5,206c.65-.21,2.54-.58,3.14-.43.26.07,3.93,3.31,4.04,3.56.69,1.57-.99,3.97-1.93,5.37l.75-2.99c-1.52-.33-2,2.77-3,.5.65-.66,1.67-1.1,2-2l-2,.5-1.27-2.96-3.73.46c-.41-.93,1.52-1.84,2-2Z"/>
  <path class="st106" d="M106.5,161c.1,1.08.35,1.32.5,2,.86,3.76.8,4.5,3.5,7.5.5.56.89,1.03,1.5,1.5l-.79,1.44-2.21-.44c-1.53-1.28-2.49-3.6-3.03-5.5l-1.97.49,1.52-2.74-.98-.47.45-1.28c-.59.48-.95-.02-1,0v-2.5l.5-.5,2,.5Z"/>
  <path class="st44" d="M91,176c-.01.11.55.58.25,1.01-.38.55-1.63.64-1.75,1.49l1.51.26-5.26,3.74c-.64-.73.8-1.88,1.25-2.5,1.12-1.55,2.24-3.17,4-4Z"/>
  <path class="st24" d="M115,174c-.09,3.01-5.06-.21-6-1l2.21.44.79-1.44c.95.74,1.86,1.53,3,2Z"/>
  <path class="st57" d="M149,139c.15.05.67,1.35,2.02.74l.42.57c.37,1.24-.54,4.8-.94,6.19-.14.49-.47,2.08-.99,2l-1.5-2.99c.35,2.62,3.32,6.68-.5,7.99.73-1.6.26-4.35-.12-6.12-.23-1.05-.92-3.25-1.87-3.87.34,3.15,2.48,6.1,1.04,9.29-.09.2-2.37,3.3-2.52,3.46-1.45,1.58-3.27,1.84-5.29,2.05l-1.97-3.29-1.25.49.99,1.75c-.59,1.06-1.57.06-2.27.68-.12.1-1.56,2.28-1.73,2.57-1.27-1.9.75-2.48.93-3.32s-1.21-1.74-.85-2.59c2.36-1.79,4.69-1.97,4.92-5.59l1.49,1c1.19-2.32-1.21-1.19-.99-2.99,1.79-.34,2.53-2.66,4.49-1.5v-1.52c2.12,1.17,1.58-.48,2-.99.62-.74,1.99-2.51,2.5-3,.38-.36,1.5-1.17,2-1Z"/>
  <path class="st19" d="M131.5,128c.05.32-.07.73,0,1-1.75-.09-2.2,2.45-2.57,2.9-.09.12-1.16-.48-1.44.36,1.57,1.84-.13,2.48-.04,4.48.07,1.58,1.94,3.1.04,4.51-1.08.81-2.65-.81-1.5,1.74-3.14-1.09-5.09-2.59-8.39-1.15-.67.29-.56,1.15-.91,1.17-.45.02-1.17-.54-1.71-.51-1.92-.6-.04-1.92-.75-3l-2.75,3.5c.19-3.21,1.7-4.68-.51-7.5.14-.19.82-.28.93-.73l-.43-1.27c-1.2,1.33-1.61.5-1.99.5l1-2.5c1.24.41,3.07-.29,3.81,1.49l1.14-.44.8,1.45,1-1.49c2.02,1.21.69,2.29.8,3.69.4,5.05,3.36,3.75,2.3-.57-.54-2.19-2.07-2.58-.3-5.6l.85.31c.2-1.16,2.36-.58,3.61-1.35-.48,1.19-.03,2.11.79,3.03l6.21-4.03Z"/>
  <path class="st14" d="M126,143c2.4.83,4.91,1.36,7,3-.41.85-.18,1.71-1.03,2.72-.63.76-3.04,2.17-4.06,2.44-4.18,1.08-3.32-1.19-5.41,2.84-.09.18-.43.33-.5.5-3.45,1.7-3.78-3.16-3.5-5.5-1.4-.29-.97.51-1,1.5l-3.49-1.76c-.4-.81,1.91-1.08,2.01-3.04s-1.6-1.09-1.51-2.7c.1-.02.32-.49.5-.5.53-.03,1.25.53,1.71.51.34-.01.24-.87.91-1.17,3.3-1.44,5.25.07,8.39,1.15Z"/>
  <path class="st9" d="M132.5,117.5c.62.18,2.05,1.13,2.5,1.5.77.63.34,1.17.5,1.5-.21,3.2-2.21,6.94.99,9.25-2.65,1.11-.95,1.94-1.03,3.53-.04.8-.95,1.37-.96,1.47,0,.38,1.47.78,1.74,1.25.56.94.48,4.22,1.99,5.51.45.41,4.71.63,5.42.49.13-.03,1.42-1.3,1.72-1.49.36-.22.73-.37,1.12-.51h.5c-.51.49-1.88,2.26-2.5,3h-3s.5,1.5.5,1.5c-1.84.57-2.72-.8-4-1.25-1.97-.68-2.84-.2-4.25-2.75l-.49,1c-1.87-2.8-7.2-5.77-1.75-8.01l-1-1.48,2-.51-1.5-1.75.93-.32c.22-.34-.41-.35-.43-.42-.07-.27.05-.68,0-1,.15-.18.34-.33.5-.5,1.61-1.68,1.41-7.83.5-10Z"/>
  <path class="st40" d="M133.5,169c-4.09,4.95-14.78,7.06-20,2.75.13-.57,1.16-.09,1.5-.25,1.81,1.26,5.63.74,7.5,0,2.48-.98,8.28-6.36,9.5-8.5l2.28,4.48c.1.53-.45,1.12-.78,1.52Z"/>
  <path class="st19" d="M114.5,143c-.09,1.61,1.6.78,1.51,2.7s-2.41,2.24-2.01,3.04l3.49,1.76c.02-.99-.4-1.79,1-1.5-.28,2.33.05,7.2,3.5,5.5-.57,1.41-.9,2.45-1,4-.02.33-.01.67,0,1l-3.79-.47c-.23-2.99.68-2.66-1.21-5.03-.76-.96-2.82-2.45-3.22-3.03-.62-.92-.82-3.21-1.78-4.22l1.5-.25-.77-2.51c.37-.6,2.03-.84,2.77-.99Z"/>
  <path class="st33" d="M111,135.5c2.2,2.82.69,4.28.51,7.5l2.75-3.5c.7,1.08-1.17,2.4.75,3-.18,0-.4.48-.5.5-.74.15-2.4.39-2.77.99l.77,2.51-1.5.25c.96,1.01,1.16,3.3,1.78,4.22.39.58,2.45,2.07,3.22,3.03.32,1.73-3.34,1.27-5,1.5l3.49-2.25-2.99-1.75c-.03-.45-1.03-1.95-.5-3-1.74.56-1.76.75-3.5.5-.29-.04-1.05-.37-1.5-.5,1.11-.41.83-1.7,1-3,.08-.64-.06-1.35,0-2l1.49.5c-.29-2.1.56-3.34,1.5-5,.6-1.05,2.04-1.55,0-2.24.29-.45.69-.84,1-1.26Z"/>
  <path class="st19" d="M133,146c.31-.66.77-1.78,1.5-2,.47,2.04.31,4.21-.49,6.17-.24.59-1.09.15-1.54.65-.86.95-.53,2.79-.75,3.21-.09.17-2.57,2.61-2.73,2.71-.5.3-4.04.95-4.42.72l-2.06-3.44c2.09-4.04,1.23-1.76,5.41-2.84,1.02-.27,3.43-1.68,4.06-2.44.85-1.01.62-1.87,1.03-2.72Z"/>
  <path class="st63" d="M110.5,155.5c-1.24,2.17-1.87,5.09-1.16,7.5.28.94,1.47,2.07,1.58,3.39.11,1.21-1.06,1.78-.93,2.35.18.8,2.9.54.51,1.76-2.7-3-2.64-3.74-3.5-7.5-.12-1.75.29-4.09,1.12-5.63.62-1.15,1.48-1.33,1.88-1.87h.5Z"/>
  <path class="st22" d="M121,158.5c1.67-3.9,1.82.63,2.34,2.41.27.93,1.02,1.43,1.17,2.33l-1.5-.74-1.26,1.51c-.34-1.49-.69-2.98-.74-4.51-.01-.33-.02-.67,0-1Z"/>
  <path class="st93" d="M111,155.5c-.16.02-.34-.02-.5,0h-.5c1.02-1.36,1.6-2.2,1.5-4l2.99,1.75-3.49,2.25Z"/>
  <path class="st75" d="M122.5,171.5c-1.87.74-5.69,1.26-7.5,0,.14-.07.32-1.01,1.22-1,.8,0,1.46.81,2.13.91,1.22.18,3.03-1.21,4.14.09Z"/>
  <path class="st91" d="M137,86c-.08.64-.49,1.4-.5,2,0,.17,0,.33,0,.5l-2.25,2.49-1.24-.99-.51,2c-1.04-1.07-3.45-1.65-4.28,0-.41.81.73,1.6.84,2.74.12,1.2-.38,2.18-.55,3.26-.18,1.16-.53,2.31-.5,3.5l1.99-.5-.45,1.28c1.58.43.7,1.08.45,2.22-.81-.39-1.7-.6-2.5-1-.49-.25-1.91-.77-1.94-1.25,1.38-1.68.75-2.7-.06-4.25-.22-.43-.69-1.15-1-1.5-1.05-1.19-1.42-.45-1.47-.53-.27-.43.43-1.62-.53-1.47.02,1.64-1.77,1.54-2.49,2.26-.82.81-1.25,3.25-3,3.73l-1.01-1.24.99-1.75-1.25.99c-.92,0-1.13-6.21-.75-7.49,2.44-.23,4.95-1.78,7.64-1.52,1.51,1.12.98,2.48,1.11,4.02l2.21-2.31c.13-.83-1.73-1.45-.45-2.42,1.01-.77,9.31-2.13,11.49-2.76Z"/>
  <path class="st12" d="M113.5,91c.08,2.89-1.15,5.67-2.99,7.76l.99.24.5,2.5c-2.04,5.4-6.44,5.25-9.5,10.5l-2.5,1,1.49-2.49-1.75.99-1.25-1c.14-.11.33-.72.5-1,.41-.6,1.68-.74,2-1l.75.96c2.72-1.13,3.63-2.35,5.25-4.72l-1.5-1.25c.08-.25-.06-.68,0-1l1.49.5.51-3.67c-3.19-3.31-2.52-4.2-7.35-3.02-.33.08-.82-.29-1.06-.18-.14.06-.96,1.92-2.59,1.37.5-.64.63-1.79,1.15-2.35s1.79-.77,2.21-1.28c.66-.79.28-2.34,1.64-2.87,1.1-.02,4.27-.16,4.5-1,2.65.51,4.74.97,7.5,1Z"/>
  <path class="st23" d="M115,91c-.38,1.28-.17,7.49.75,7.49l1.25-.99-.99,1.75,1.01,1.24c1.76-.48,2.18-2.92,3-3.73.73-.72,2.51-.62,2.49-2.26.96-.15.26,1.04.53,1.47.05.08.41-.66,1.47.53-1.13-.37-1,.9-1.49,1.21-.6.39-1.34-1.26-1.02,2.29-1.34-.86-1.2.62-1.85,1.05-.46.3-1.21-.05-1.65.25-.7.48-.21,1.44-2.46,1.18l-.03-1.49-.96.48-.54-1.97-.5,1.5-1.49-1c.15.65-.34,1.05-.51,1.5l-.5-2.5-.99-.24c1.84-2.09,3.07-4.87,2.99-7.76.49,0,1.01.05,1.5,0Z"/>
  <path class="st15" d="M138.5,113c-.2,2.33,1.88,3.57,3,5,.63.8,1.74,1.63,2,2,1.71,2.43.05,2.76.12,4.18.03.54,1.3,5.49,1.52,5.94.51,1.05,2.1,2,2.18,2.61s-.68,2.35-.81,3.27c-1.27,1.1-2.17,1.84-4,1.5-.65-.55,2.64-2.76.74-3-1.05-.13-3.55,1.45-5.02-.5-.56-.93.1-2.67,1.27-2.51v-.73c-2.28-.94-2.55-1.91-3.45-4.08l.96-.92c-1.52-1.82-.39-2.94-1.5-5.26-.16-.33.27-.87-.5-1.5l-.5-2.5c1.03,1.51,2.61,3.55,3.9,4.85.49.49.49,1.42,1.6,1.15-.43-3.01-2.3-7.13-2.5-10,.34.14.66.37,1,.5Z"/>
  <path class="st79" d="M130,104.5c1.55.74,2.93,1.61,4.54,2.25l-.04,1.75,1.49-1c-1.43,2.76,1.42,2.8,1.97,3.55.1.14-.49,1.03-.46,1.45.2,2.87,2.06,6.99,2.5,10-1.11.27-1.11-.65-1.6-1.15-1.29-1.3-2.87-3.34-3.9-4.85-.38-.55-1.45-1.78-1.49-1.89-.17-.46.12-1.45-.02-1.61-.15-.17-1.92.12-2.5,0l-2-3.28c-.51-.25-1.82.15-2.5.28l1.52-4.3c.12-1.22-2.06.01-.02-2.2.8.4,1.69.61,2.5,1Z"/>
  <path class="st83" d="M136.5,88.5c0,.13.38.54.33,1.13-.1,1.26-.39,2.63-.56,3.9-1.45-.01-1.94,1.07-2.77.46v1.51s-1.49-1-1.49-1c-1.42,1.75-1.44,2.52-1.52,5l-1.99-1.5c.17-1.08.67-2.05.55-3.26-.11-1.14-1.25-1.93-.84-2.74.84-1.66,3.25-1.08,4.28,0l.51-2,1.24.99,2.25-2.49Z"/>
  <path class="st10" d="M144.5,92.5c.95.03,2.45-.36,3,.5-2.66-.15-5-.04-7.5.84-.41.14-.71.88-1.33,1.02-.41.09-1.12-.41-1.17-.37-.08.08-.11,1.46-.57,2.19s-1.46,1.29-1.7,1.84c-.39.86.45,1.98-.68,2.73.01.25,2.76,2.14,2.87,2.34.24.45-.85,1.62.07,1.9-2.45.58-1.63-.48-2.8-1.95-.46-.57-1.46-.77-1.66-1.38-.26-.81.39-1.67.37-2.42-.03-.81-.54-1.59-.43-2.41.02-.14,1.91-1.99,2.03-2.07.55-.37,1.57-.14,2.25-.76s1.14-3.01,1.25-4.01c2.04,2.89,2.95,1.89,5.99,2Z"/>
  <path class="st9" d="M138.5,113c2.07.8,2.43,1.87,3.49,3.76.57,1.04,1.1,1.35-.49,1.24-1.12-1.43-3.2-2.67-3-5Z"/>
  <path class="st73" d="M111,66.5c1.31-.77,3.76-5.69,2.79-7.04-.67-.93-2.69.32-2.29-1.46,2.15.09,6,.13,5.29,3-.13.54-3.11,7.57-3.41,7.88-1.31,1.34-4.17-.26-5.88.12-.02-.4-.78-1.27-.5-2,1.59-.02,2.61.31,4-.5Z"/>
  <path class="st76" d="M112,105.5v1c-.51.4-1.02.81-1.49,1.25l1.48,1.5c-1.85,1.2-3.12,2.55-4.49,4.25-2.48,3.06-5.15,8.82-5.01,12.76.08,2.06,1.76,3.49,0,5.74,1.33,1.02,3.86-3.89,4-.99l-2,1.5c-.99.17-1.95.6-3,.5l.5,1.99c-1.01-.74-3.41.69-3.79,1.49-.21.44,1.23,2.35.29,3.51l1.25-1c.75.61-1.65,3.7-2.25,1.5-.01-.09-1.27-.53-.5-1.5h-1.5c.62-3.53,1.44-6.94,2.22-10.17.53-2.2,1.44-4.17,1.76-6.61.25-1.92-1.61.31-1.98.5-.26.13-.47-.24-.5-.22v-.5c.91-1.26,1.77-2.24,2.87-3.35.78-.78.88-.46.13-1.65.76-.78,1.24-1.73,2-2.5,3.73-3.79,5.26-5.98,10-9Z"/>
  <path class="st24" d="M124.5,96.5c.31.35.78,1.07,1,1.5-1.31-.42-1.52,3.13-1.46,3.8.16,1.55,1.18,2.05,1.25,2.93.08,1.11-.81,2.28-1.01,3.23-.1.51.32,1.46.22,1.53-.4.3-2.34-.74-2.51,1.5-2.63.04-3.22-1.18-5.29-1.46-4.74-.63-7.11,3.77-9.71,6.96.23-.78.02-2.11.5-3,1.37-1.7,2.64-3.05,4.49-4.25l-1.48-1.5c.47-.44.99-.85,1.49-1.25,1.05-.82,2.25-1.65,3.66-1.53,1.02,1.96,2.68,2.7,4.83,3.03v-2.5s-2.99-.25-2.99-.25c.58-1.54,2.3-.78,2.42-.85.13-.08,1.38-2.18,1.58-2.65-1.27-.37-3.14,1.96-3.73,2.05-.94.14-2.07-.62-3.8-.08-1.26.39-1.52,1.49-1.97,1.78-4.74,3.02-6.27,5.21-10,9-.67-.8.03-1.7.5-2.5,3.06-5.25,7.46-5.1,9.5-10.5.17-.45.65-.85.51-1.5l1.49,1,.5-1.5.54,1.97.96-.48.03,1.49c2.24.27,1.76-.7,2.46-1.18.44-.3,1.2.06,1.65-.25.65-.43.52-1.91,1.85-1.05-.33-3.55.41-1.9,1.02-2.29.49-.31.36-1.58,1.49-1.21Z"/>
  <path class="st36" d="M92.5,114c-.23-.09-.69.07-1,0l.51-5.5c1.91-.25.15,1.94,2.01,2.3l-.51,1.2,1.28-.44.92.96,2.8-1.02c.82.85-3.35,3.66-4.49,3-.45,1.3,1.4,1.35,1.5,1.51.09.14-1.38,1.87-.97,3.17.16.52,1.48-.11.47,1.81l2-1c-.27.62-.39,1.38,0,2v.5c-3.06,2.09-2.52,5.46-6,7.25l1,.49c-.78,2.21-2.53,2.85-4,4.51l1.04.55c.01.33-.55.62-.54.69l-.24-.39-1.26.39c-.03-.24-.81-1.13-1-1.5.34-1.09,1.36-2.49,1.39-3.35.02-.69-.82-.96-.58-2.03.31-1.39,1.36-1.72,1.88-2.61.19-.33-.18-1.09.05-1.5.59-1.06,2.57-1.07,3.25-2.27l-1.49-.49c.93-.66,1.03-1.29.49-2.26h1.51c.31-1.57-1.55-.52-.98-2.47l1.98-.54c-1.9-1.57,1.01-2.22-1-2.99Z"/>
  <path class="st58" d="M92.5,114c2.01.78-.91,1.42,1,2.99l-1.98.54c-.57,1.95,1.29.9.98,2.47h-1.51c.54.97.44,1.6-.49,2.26l1.49.49c-.68,1.2-2.66,1.21-3.25,2.27-.23.41.14,1.17-.05,1.5-.52.89-1.57,1.22-1.88,2.61-.24,1.07.6,1.34.58,2.03-.03.86-1.05,2.26-1.39,3.35-.24.77.48,2.26-.76,3l-.75-1.99-2.49,2c-.62-2.29.83-1.85,1.5-2.72,1.85-2.44.79-3.81,1.99-6.28l-1.49,1c-.16-.21.72-1.96,1-2.5.96-1.88,1.81-2.28,1.38-4.85l6.12-8.15Z"/>
  <path class="st34" d="M93,96l1.99-.26-.42,1.18.93.09c.37.49-4.06,3.19-1.5,2.99-.87.89-.27,2.63-.5,3.5-.16.59-.75,1.73-1,2.5-.49,1.48-1.46,3.61-2.25,5l.25-3-3,1.49c.57-.5,4.24-3.45,1.74-3.99-1.24-.27-1.71,3.21-3.24,2.25,1.19-2.28,3.88-3.37,4.94-5.61.47-.98.17-1.75.36-2.16.66-1.4,1.6-.65,1.7-3.49,0-.17,0-.33,0-.5Z"/>
  <path class="st13" d="M93.5,103.5c-.51,1.89.9,2.73,2.5,3-.61-.97-.13-1.06,0-1.5.14.19.37.32.5.5,1.26,1.75,1.78,1.65,4,1.5-.28.85-1.26,1.26-1.72,2-.15.25.24.47.22.49-.17.28-.36.89-.5,1-.16.13-1,.03-1.26.5-.55-1.51-1.34-1.35-2.74-1,.94-1.72-2.58-1.93-2-4,.25-.77.84-1.91,1-2.5Z"/>
  <path class="st45" d="M100,117c.75,1.19.66.86-.13,1.65-1.1,1.11-1.97,2.09-2.87,3.35-.39-.62-.27-1.38,0-2,.75-1.71,2.26-2.23,3-3Z"/>
  <path class="st85" d="M101.5,91c-1.36.53-.98,2.08-1.64,2.87-.42.51-1.69.71-2.21,1.28s-.65,1.71-1.15,2.35c-.99,1.26-1.83,1.82-2.5,2.5-2.56.2,1.87-2.5,1.5-2.99l-.93-.09.42-1.18-1.99.26c.02-1.32.34-.44,1.2-1.51.15-.19-.15-.75-.05-.88.52-.64,2.18-.47,1.35-2.11,2.04.97,1.24-.17,1.83-.51,1.91-1.1,2.8.03,4.17,0Z"/>
  <path class="st15" d="M94.5,157c.11-.07,1.57.75,2.29-.5.41-.7-.85-1.83.46-2.49l1.25.49-.99.74,2,2.75c-.65.95-.1,1.94,0,3-1.58.29-3.14,2.75-4.75,3.33-3.02-.88.16-2.15-3.2-3.05-.53-.14-1.03.22-1.54.22-.92-.97,3.22-2.64,3.73-3.03.43-.32.62-1.38.76-1.47Z"/>
  <path class="st106" d="M102,157c.5.79,2.13,2.06,2.5,3.5l-.5.5c-1.39.17-3.2-.24-4.5,0-.1-1.06-.65-2.05,0-3,.25-.37,1.56-1.08,2-1.5.12.22.4.34.5.5Z"/>
  <path class="st45" d="M97,122.5s.24.35.5.22c.37-.19,2.23-2.42,1.98-.5-.32,2.44-1.23,4.41-1.76,6.61-.78,3.23-1.6,6.65-2.22,10.17-.75,4.22,1.09,6.41,2.23,10.46.13.46-.24.99-.23,1.04h-1.99c.51-1.12-.98-2.59-1.01-3,0-.1.66-.57.5-1l-1.45-.03-.06-2.97-.99.5c.2-.33.6-3.83.5-4l-2.49,1c-.35-1.11,1.3-1.56,1.34-2.25.01-.25-1.06-1.28-.34-2.25l-2.49,1.5c.22-.74-.45-1.52-.51-2,0-.07.55-.37.54-.69l-1.04-.55c1.47-1.66,3.22-2.31,4-4.51l-1-.49c3.48-1.79,2.94-5.16,6-7.25Z"/>
  <path class="st86" d="M92.5,144l.99-.5.06,2.97,1.45.03c.16.43-.51.9-.5,1-.24-.82-1.63.03-2,0-1.35-.11-.79-1.54-3,0l-.5-2c.89.72,3.09-.86,3.5-1.5Z"/>
  <path class="st69" d="M90,231c.23-.3,1.17-2.35,1-2.5h-1.71c-1.98-.24,3.14-4.55,3.71-4l-1,1.49c1.83-.2,3.58,3.75,4.35,5.4.53,1.15.43,2.57,1.13,3.87,1.05,1.98,3.24,1.75,2.03,4.23l.99-.51c.58,2.02.5,2.98-1.49,4.01v-1.51s-1.5.51-1.5.51v-2s-2.5,1-2.5,1c0-2.94-2.92-2.65-1.51-6l-2,.49.45-1.27-.97-.97,1.02-1.75-2.5.5c.21-.21.3-.73.5-1Z"/>
  <path class="st104" d="M102.5,227.5c1.67,1,.89,1.34,1.48,1.8.43.34,1.22-.32,1.44-.2.26.14.48,1.95,2.08,1.4-1.18,1.51-3.27,3-4.25,1l-3.25,3,2.49-7Z"/>
  <path class="st104" d="M101.5,227l-1.25,2.5-.49-1-2.25,1.5c.23-1.54-.25-3.05,1.25-4l.74.99c-.03-.4.27-.7.51-1,.47.35.97.75,1.5,1Z"/>
  <path class="st25" d="M81,230c.11,4.28-.44,2.28-2.5,4.5.43-2.33-.11-3.49,2.5-4.5Z"/>
  <path class="st41" d="M135.5,120.5c1.11,2.32-.02,3.44,1.5,5.26l-.96.92c.89,2.17,1.17,3.14,3.45,4.08v.73c-1.18-.15-1.84,1.58-1.27,2.51,1.47,1.95,3.98.37,5.02.5,1.9.24-1.39,2.45-.74,3,1.83.35,2.72-.4,4-1.5-.19,1.32-.71,2.92,0,4-.39.14-.77.29-1.12.51-.29.18-1.58,1.46-1.72,1.49-.71.15-4.97-.07-5.42-.49-1.51-1.29-1.44-4.57-1.99-5.51-.28-.47-1.74-.87-1.74-1.25,0-.1.92-.66.96-1.47.08-1.59-1.63-2.43,1.03-3.53-3.21-2.31-1.2-6.05-.99-9.25Z"/>
  <path class="st39" d="M82.5,205.5c3.01-.82,4.36,3.7.49,3.27-.85-.63-.37-2.34-.49-3.27Z"/>
  <path class="st9" d="M99,144c.42.64,1.75,2.09,2.5,2,0,.08.42,1.3.5,1.5.07.18-.15.63.08.92.4.5,1.73-.03,2.16.57,1.15,1.6.96,5.35,3.77,6.52-1.5,1.42-1.67,3.71-1.5,5.5l-2-.5c-.37-1.44-2-2.71-2.5-3.5l2.99-1.25c-2.1-.86-1.02-1.44-1.53-3.22-2.09.51-2.14-.54-2.96-1.03,1.95-.8-.15-3.36.5-5-.96-1.31-1.48,2.51-1.5,3-.12-.83-2.05-2.95-2.05-3.24-.02-.65.16-3.66,1.55-2.26Z"/>
  <path class="st60" d="M107.5,149c1.74.25,1.76.06,3.5-.5-.52,1.04.48,2.55.5,3,.1,1.8-.48,2.64-1.5,4-.41.54-1.26.71-1.88,1.87-.83,1.54-1.23,3.88-1.12,5.63-.15-.68-.4-.92-.5-2-.17-1.79,0-4.08,1.5-5.5.15-.15,1.26-.08,1.49-.75-1.06-1.75-2.29-3.58-1.99-5.75Z"/>
  <path class="st54" d="M112,117c.06-.03.61.47,1.33.12,1.39-.67,2.88-2.3,4.21-2.83,1.02-.41,5.72-1.03,6.45-.56.47.31.85,1.73,1.26,1.74.23,0,.48-1.06,1.59-.62.4.16,3.59,2.88,3.82,3.28.73,1.31.7,3.03,1,4.46.33,1.62,1.42,2.52.35,4.9-.16.17-.35.32-.5.5l-6.21,4.03c-.81-.92-1.27-1.84-.79-3.03-1.25.77-3.41.18-3.61,1.35l-.85-.31c-1.77,3.02-.23,3.4.3,5.6,1.06,4.32-1.91,5.62-2.3.57-.11-1.4,1.23-2.48-.8-3.69l-1,1.49-.8-1.45-1.14.44c-.75-1.77-2.57-1.07-3.81-1.49-.57-.19-2.49-2.92-2.7-3.48-.37-1.01.93-2.38-1.8-3.02-.02-2.03-.75-2.83,1-5,.25-.31,1.56-1.24,2-1.5.5-.29,2.19-1.08,3-1.5Z"/>
  <path class="st77" d="M106,125c2.73.63,1.43,2,1.8,3.02.21.56,2.13,3.29,2.7,3.48l-1,2.5c-.23,0-.7.41-1,.5.06-.45.25-.88.46-1.28l-.96-.47c1.24-.86.85-1.51.49-2.75l-.99.5v-1.71s-1.5-.29-1.5-.29c-.36-.93-.73-1.28-.5-2.5.02-.11.7-.5.5-1Z"/>
  <path class="st29" d="M111,135.5c-.32.42-.71.81-1,1.26,2.05.69.6,1.19,0,2.24-1.61.11-.69-.97-1.17-1.88-.09-.17-.78-.1-.78-.35.01-.36.34-1.56.44-2.28.3-.09.77-.5,1-.5.39,0,.79.83,1.99-.5l.43,1.27c-.11.45-.79.55-.93.73Z"/>
  <path class="st6" d="M132.5,117.5c.91,2.17,1.11,8.32-.5,10,1.07-2.38-.02-3.28-.35-4.9-.29-1.43-.26-3.15-1-4.46-.23-.4-3.42-3.12-3.82-3.28-1.11-.44-1.36.62-1.59.62-.41,0-.79-1.43-1.26-1.74-.73-.47-5.43.15-6.45.56-1.32.53-2.82,2.16-4.21,2.83-.72.35-1.27-.15-1.33-.12.07-3.56,3.9-3.25,4.53-3.78.42-.36.4-1.16.47-1.22,1-.71,8.69-.39,10.13.12,1.65.59,4.66,3.69,5.37,5.38Z"/>
  <path class="st5" d="M122,111c.91-.01,2.05-.34,3-.5,2.2.05,3.59,2.1,5.5,2.5.58.12,2.34-.17,2.5,0,.14.15-.15,1.15.02,1.61.04.11,1.11,1.34,1.49,1.89l.5,2.5c-.45-.37-1.88-1.32-2.5-1.5-.71-1.69-3.72-4.78-5.37-5.38-1.44-.52-9.12-.83-10.13-.12-1.5-.65-2.77-1.47-4.35-.34-1.15.83-1.44,6.07-3.65,6.84-.44.26-1.75,1.19-2,1.5l-1.02-.84c-.23-1.05.84-2.01,1.02-2.66,2.59-3.19,4.96-7.59,9.71-6.96,2.08.28,2.66,1.49,5.29,1.46Z"/>
  <path class="st94" d="M106,128.5l1.51.29v1.71s.99-.5.99-.5c.36,1.24.75,1.89-.49,2.75l.96.47c-.21.4-.4.83-.46,1.28-.1.72-.43,1.91-.44,2.28,0,.24.69.17.78.35.47.91-.45,1.99,1.17,1.88-.95,1.66-1.79,2.9-1.5,5l-1.49-.5c-.07.65.08,1.36,0,2l-3,.5v-2c-.82-.21-.25.82-.84,1.01-.4.13-.96-.1-1.17-.01l1-2-2.29-.49c-.37-2.02.29-2.84,2.29-3.01-.12.97-.64,1.23-1,1.99l2.5-.99c.54.67-2.32,2.52-.25,2.5l3.2-4.32-.69-1.17-1.24.99c-.99-2.59-.21-3.63,2.49-3.25l-3-1.25c.75-.55,1.71-.91,1.5-2-1.14,1.35-1.88.48-2,.5l2-1.5.5-.25c.14-1.28-.51-1.01-1-2.25Z"/>
  <path class="st46" d="M106,148.5c.45.13,1.21.46,1.5.5-.31,2.17.93,4.01,1.99,5.75-.23.67-1.34.6-1.49.75-2.8-1.16-2.62-4.91-3.77-6.52-.43-.6-1.76-.06-2.16-.57-.23-.29,0-.74-.08-.92,1.45-.59,2.27.48,4,1Z"/>
  <path class="st72" d="M102,145c.21-.09.77.14,1.17.01.58-.19.02-1.22.83-1.01v2s3.01-.5,3.01-.5c-.17,1.3.11,2.59-1,3-1.73-.52-2.55-1.59-4-1-.08-.2-.51-1.42-.5-1.5.04-.36.16-.85.5-1Z"/>
  <path class="st85" d="M125.5,98c.81,1.55,1.44,2.57.06,4.25.03.48,1.45,1,1.94,1.25-2.04,2.21.13.97.02,2.2l-1.52,4.3c-.47.09-.86.48-1,.5-.95.16-2.09.49-3,.5.17-2.25,2.11-1.21,2.51-1.5.1-.08-.32-1.02-.22-1.53.19-.96,1.09-2.13,1.01-3.23-.06-.88-1.09-1.38-1.25-2.93-.07-.68.15-4.22,1.46-3.8Z"/>
  <path class="st3" d="M96.5,97.5c1.63.55,2.45-1.3,2.59-1.37.24-.1.73.26,1.06.18,4.83-1.18,4.17-.29,7.35,3.02l-.51,3.67-1.49-.5c-.06.32.08.75,0,1-.54,1.64-.61.79-1.5,1.73-.82.87-2.26,2.67-3,3.27-.32.26-1.59.4-2,1,.01-.02-.38-.25-.22-.49.46-.74,1.45-1.15,1.72-2-2.22.15-2.74.24-4-1.5,1.42-1.7,3.49-2.41,3.5-5-2.98-.25-3.36,2.34-4,4.5-.13.44-.61.53,0,1.5-1.6-.27-3.01-1.11-2.5-3,.23-.87-.37-2.61.5-3.5.67-.68,1.51-1.24,2.5-2.5Z"/>
  <path class="st49" d="M105.5,103.5l1.5,1.25c-1.62,2.37-2.53,3.59-5.25,4.72l-.75-.96c.74-.6,2.17-2.41,3-3.27.89-.94.97-.09,1.5-1.73Z"/>
  <path class="st15" d="M130.5,113c-1.91-.4-3.3-2.45-5.5-2.5.14-.02.53-.41,1-.5.68-.13,1.98-.53,2.5-.28l2,3.28Z"/>
  <path class="st32" d="M105,134c-.44.32-1.45.45-1.5.51-.07.11.8,1.13.28,1.98-.55.9-4.01,1.6-3.03,3l2.25-.99c-.01.33.04.67,0,1-2,.18-2.66.99-2.29,3.01l2.29.49-1,2c-.34.15-.46.64-.5,1-.75.09-2.08-1.36-2.5-2-.08-.13.16-.67-.03-.96l-1.98-.05c.16-.64.58-1.91.5-2.5.6,2.2,3-.89,2.25-1.5l-1.25,1c.94-1.16-.5-3.08-.29-3.51.38-.8,2.78-2.22,3.79-1.49l-.5-1.99c1.05.1,2.01-.33,3-.5.12-.02.86.85,2-.5.22,1.09-.74,1.45-1.5,2Z"/>
  <path class="st32" d="M107,116.5c-.19.65-1.25,1.6-1.02,2.66l1.02.84c-1.75,2.17-1.02,2.97-1,5,0,.08-.57.64-.5,1-.23,1.22.14,1.57.5,2.5.48,1.25,1.14.98,1,2.25l-.5.25c-.14-2.9-2.67,2.02-4,.99,1.75-2.25.07-3.68,0-5.74-.14-3.94,2.53-9.7,5.01-12.76-.48.89-.27,2.22-.5,3Z"/>
  <path class="st16" d="M95.5,139h1.5c-.77.97.49,1.41.5,1.5.08.59-.34,1.85-.5,2.5l1.98.05c.18.29-.05.83.03.96-1.39-1.4-1.57,1.62-1.55,2.26,0,.29,1.93,2.41,2.05,3.24-.02.59-.09,1.47,0,2,.1.56.78,1.37,1,2-2.19,2.48-1.77-1.11-2.15-2.36-.07-.23-.79-.46-.85-.64-.01-.05.36-.58.23-1.04-1.14-4.05-2.97-6.24-2.23-10.46Z"/>
  <path class="st30" d="M112,105.5c.45-.29.71-1.38,1.97-1.78,1.74-.54,2.86.22,3.8.08.59-.09,2.46-2.42,3.73-2.05-.21.46-1.45,2.57-1.58,2.65-.12.07-1.84-.69-2.42.85l2.99.25v2.5c-2.15-.33-3.81-1.07-4.83-3.03-1.42-.12-2.61.71-3.66,1.53v-1Z"/>
  <path class="st37" d="M96,105c.64-2.16,1.02-4.75,4-4.5,0,2.59-2.08,3.3-3.5,5-.13-.18-.36-.31-.5-.5Z"/>
  <path class="st82" d="M100.5,151.5c.82.49.87,1.54,2.96,1.03.5,1.77-.57,2.35,1.53,3.22l-2.99,1.25c-.1-.16-.38-.28-.5-.5-.39-.71-.67-2.05-1-3-.22-.63-.9-1.44-1-2,.29.07.83-.1,1,0Z"/>
  <path class="st47" d="M99.5,149.5c.02-.48.53-4.31,1.5-3-.65,1.64,1.45,4.2-.5,5-.17-.1-.71.07-1,0-.09-.53-.02-1.41,0-2Z"/>
  <path class="st33" d="M117,112c-.08.05-.05.86-.47,1.22-.63.53-4.46.22-4.53,3.78-.81.42-2.5,1.21-3,1.5,2.22-.77,2.5-6.01,3.65-6.84,1.58-1.13,2.85-.31,4.35.34Z"/>
  <path class="st33" d="M105.5,126c-.07-.36.5-.92.5-1,.2.5-.48.89-.5,1Z"/>
  <path class="st24" d="M105,134l3,1.25c-2.7-.39-3.48.66-2.49,3.25l1.24-.99.69,1.17-3.2,4.32c-2.07.03.8-1.82.25-2.5l-2.5.99c.36-.76.88-1.03,1-1.99.04-.32-.02-.67,0-1l-2.25.99c-.97-1.41,2.48-2.1,3.03-3,.52-.85-.35-1.87-.28-1.98.04-.07,1.06-.19,1.5-.51Z"/>
</svg>